<svg width="54" height="40" viewBox="0 0 54 40" fill="none" xmlns="http://www.w3.org/2000/svg">
<path fill-rule="evenodd" clip-rule="evenodd" d="M23.9956 1.56271C18.5921 3.12813 10.6337 5.75778 10.2625 6.10047C10.1344 6.21877 10.034 6.43149 10.034 6.58461C10.034 6.96609 10.3944 7.39296 10.7163 7.39296C10.8601 7.39296 12.1248 7.00163 13.5266 6.52338C18.658 4.77275 25.6383 2.65283 26.603 2.552C27.4077 2.46783 27.9912 2.60054 31.6617 3.70183C38.4048 5.72509 49.8721 9.75668 50.87 10.455C51.0193 10.5593 51.2202 10.8513 51.3167 11.1038C51.4638 11.4892 51.4726 11.627 51.3716 11.9641C51.1547 12.688 50.9412 12.8285 48.771 13.6746C44.446 15.3608 39.8838 16.9581 39.734 16.8386C39.4378 16.6022 27.1625 10.8453 26.9547 10.8453C26.5509 10.8453 26.2396 11.1717 26.2396 11.5951C26.2396 11.7986 26.3084 12.034 26.3927 12.1182C26.5169 12.2424 35.9369 16.7995 37.3987 17.4424L37.8048 17.6211L37.4494 17.7237C37.254 17.7802 36.1345 18.1329 34.9617 18.5076C33.789 18.8822 31.7557 19.5127 30.4433 19.9087C28.1387 20.6041 28.0207 20.6288 26.991 20.6285C25.9383 20.6282 25.8861 20.6164 22.8786 19.703C15.8819 17.5779 10.2674 15.6552 4.82619 13.5207C2.98042 12.7967 2.70931 12.5965 2.57203 11.8559C2.48644 11.3942 2.75277 10.7062 3.11557 10.452C3.2628 10.3488 4.51812 9.82714 5.90524 9.29285C7.29327 8.75804 8.49021 8.23806 8.56738 8.13632C8.95353 7.627 8.48788 6.81236 7.8689 6.9142C7.55809 6.96528 4.70252 8.03956 3.12755 8.69783C1.68956 9.29884 1.09769 10.0784 1.01666 11.4777C0.974221 12.2106 0.995036 12.3193 1.29356 12.9258C1.49674 13.3383 1.7777 13.7136 2.05134 13.9379C2.52136 14.3231 4.92133 15.2998 9.20281 16.8482L11.5553 17.6991L11.5562 22.0535C11.5568 25.189 11.5918 26.5238 11.6813 26.8223C11.8722 27.4596 12.4926 28.0212 13.4355 28.4104C17.7516 30.1916 26.0978 32.9807 27.1121 32.9807C27.7961 32.9807 34.545 30.836 37.7794 29.5909L38.4648 29.327L38.4633 30.4685L38.4617 31.6099L37.8794 31.9223C37.5453 32.1016 37.1576 32.4172 36.9698 32.6629C36.4129 33.3912 36.3325 33.8613 36.3325 36.387C36.3325 38.512 36.3444 38.6546 36.543 38.907L36.7534 39.1745H39.1717C41.4015 39.1745 41.6087 39.1594 41.8297 38.9804C42.0692 38.7865 42.0694 38.7845 42.0694 36.4166C42.0694 34.6824 42.0312 33.9151 41.9268 33.5555C41.7481 32.9399 40.9602 32.0514 40.3912 31.8237L39.9825 31.6602L40.0105 30.1852L40.0387 28.7104L40.851 28.3609C41.7688 27.9661 42.3141 27.455 42.508 26.8081C42.653 26.3241 42.667 24.7142 42.5285 24.4554C42.3739 24.1665 41.9086 24.0448 41.5444 24.198C41.1565 24.3611 41.1051 24.5009 41.1033 25.399C41.1025 25.7993 41.0441 26.2411 40.9736 26.3807C40.8636 26.5984 40.3039 26.9698 40.0629 26.985C40.0204 26.9877 39.9975 25.0866 40.0122 22.7603L40.0387 18.5307L40.5717 18.3496L41.1048 18.1684V20.1856V22.2029L41.3724 22.4133C41.7058 22.6756 42.0268 22.6811 42.3374 22.4298C42.5737 22.2387 42.5778 22.2023 42.6279 19.9302L42.6787 17.6245L45.3694 16.6375C51.4471 14.4082 52.0333 14.1214 52.6081 13.0969C52.9561 12.4768 53.0817 11.475 52.8971 10.793C52.734 10.1902 52.2385 9.47024 51.7764 9.1645C50.469 8.29929 39.9307 4.54978 32.5248 2.31481C28.3318 1.04933 28.105 0.996026 26.9402 1.00019C26.0164 1.00344 25.7508 1.05421 23.9956 1.56271ZM16.1833 19.2554C19.1479 20.2142 21.5614 20.961 24.3002 21.767C25.7801 22.2025 26.0197 22.2452 26.991 22.2461C27.9879 22.2471 28.1824 22.2105 29.9863 21.6816C31.6511 21.1935 37.9719 19.2371 38.339 19.0964C38.4411 19.0573 38.4617 19.9202 38.4405 23.3451L38.414 27.6428L37.2971 28.0824C34.5788 29.1523 27.7107 31.3561 27.0945 31.3561C25.9478 31.3561 13.9873 27.1959 13.334 26.5698C13.1385 26.3825 13.1298 26.2229 13.1022 22.3042C13.0783 18.9288 13.0967 18.2423 13.2099 18.2856C13.285 18.3145 14.6229 18.7509 16.1833 19.2554ZM39.8945 33.357C40.4186 33.6667 40.4956 33.994 40.4956 35.9153V37.6515H39.2264H37.9571V35.8695C37.9571 33.9156 38.0247 33.6235 38.5423 33.3427C38.9173 33.1392 39.5369 33.1458 39.8945 33.357Z" fill="#1A136F" stroke="#1A136F" stroke-width="0.5"/>
</svg>
