<svg width="44" height="44" viewBox="0 0 44 44" fill="none" xmlns="http://www.w3.org/2000/svg">
<path fill-rule="evenodd" clip-rule="evenodd" d="M9.61224 1.14475C9.41384 1.34308 9.40963 1.37518 9.40963 2.67845C9.40963 3.71117 9.38652 3.99995 9.30646 3.96669C8.88844 3.79296 6.36947 2.99636 6.10397 2.95394L5.77244 2.90087L4.64051 4.01613L3.50858 5.13147L3.14486 4.93504C2.53346 4.60491 1.73843 4.72706 1.29301 5.21953C0.903784 5.64994 0.916164 5.19254 0.914266 19.223C0.912533 31.8891 0.91864 32.4416 1.0648 32.7583C1.14857 32.9398 1.30563 33.1672 1.41375 33.2635C1.52187 33.3598 5.26577 35.4933 9.73348 38.0045C17.8326 42.5567 17.8581 42.5703 18.337 42.575C18.6012 42.5775 18.8175 42.6082 18.8178 42.6433C18.818 42.6784 18.9927 42.8176 19.2059 42.9528L19.5934 43.1986H21.9545H24.3156L24.7032 42.9528C24.9163 42.8176 25.0908 42.6784 25.091 42.6433C25.0911 42.6082 25.3047 42.5796 25.5655 42.5796C26.0394 42.5796 26.049 42.5745 34.1693 38.0111C38.6404 35.4984 42.3871 33.3629 42.4953 33.2655C42.9465 32.859 42.9964 32.5889 42.9984 30.5468L43.0002 28.6654L42.7976 28.4629C42.5517 28.217 42.1871 28.1984 41.9158 28.4179C41.7238 28.5732 41.7204 28.6024 41.6797 30.4569L41.6384 32.3384L33.6741 36.8188C29.2937 39.2828 25.6487 41.2993 25.5741 41.2997C25.4995 41.3 25.416 41.2416 25.3884 41.1698C25.3161 40.9814 25.329 15.1969 25.4015 15.0865C25.4827 14.9627 41.3566 6.03701 41.5146 6.02628C41.6238 6.01885 41.6433 7.15309 41.6797 15.6196L41.721 25.2212L41.9158 25.379C42.1646 25.5804 42.5152 25.5805 42.7641 25.3789L42.9589 25.2212L42.9806 15.6734C42.9948 9.39986 42.9735 6.01885 42.9184 5.81434C42.6704 4.8932 41.6289 4.46808 40.7642 4.93504L40.4004 5.13147L39.2685 4.01613L38.1366 2.90087L37.805 2.95394C37.5395 2.99636 35.0206 3.79296 34.6026 3.96669C34.5225 3.99995 34.4994 3.71117 34.4994 2.67845C34.4994 1.37518 34.4952 1.34308 34.2968 1.14475C34.1853 1.03317 33.9975 0.942139 33.8789 0.942139C33.352 0.942139 30.6735 2.2728 29.1388 3.29694C27.5426 4.36219 25.8964 5.84488 24.7891 7.21458C23.7942 8.44513 22.6705 10.3311 22.1949 11.5681C22.0858 11.8519 21.9777 12.084 21.9545 12.084C21.9313 12.084 21.8233 11.8519 21.7143 11.5681C21.6055 11.2845 21.3179 10.6704 21.0754 10.2036C19.1074 6.41517 15.6439 3.29818 11.2739 1.38261C10.7252 1.14211 10.1724 0.944615 10.0455 0.943707C9.90895 0.942799 9.73208 1.02484 9.61224 1.14475ZM12.0224 3.16531C15.3735 4.9055 17.8954 7.2419 19.6449 10.227C19.8351 10.5515 19.8294 10.5487 19.3077 10.0606C18.5701 9.3704 17.811 8.72294 17.0972 8.17542C16.3784 7.62386 16.1332 7.5835 15.8132 7.96372C15.4194 8.43168 15.5263 8.60318 16.8387 9.6076C17.821 10.3594 19.4913 12.0509 20.2453 13.0573C20.5952 13.5245 20.8816 13.933 20.8815 13.9651C20.8814 14.0915 19.5873 14.0779 19.2772 13.9484C19.1086 13.8779 15.7598 12.0142 11.8354 9.80675L4.70018 5.79313L5.38288 5.08022C5.75832 4.68802 6.12567 4.356 6.19921 4.34238C6.55129 4.27685 9.73109 5.45706 11.617 6.35319C12.232 6.64536 12.8225 6.88445 12.9293 6.88445C13.3391 6.88445 13.6574 6.29682 13.4326 5.95539C13.3221 5.7876 11.8686 5.01114 11.0572 4.68654L10.7301 4.55564V3.57417C10.7301 2.88998 10.7589 2.59278 10.825 2.59278C10.8771 2.59278 11.416 2.85045 12.0224 3.16531ZM33.1744 3.56253L33.17 4.53229L31.4619 5.37461C28.8588 6.65831 26.9767 7.9161 25.0675 9.64771L24.095 10.5296L24.4715 9.89283C25.684 7.84207 27.6693 5.80031 29.8604 4.35071C30.7808 3.74179 32.8757 2.59757 33.0757 2.59443C33.1527 2.59319 33.1777 2.83856 33.1744 3.56253ZM38.5289 5.08344C39.2044 5.78851 39.2121 5.80122 39.0237 5.90174C38.9184 5.95786 35.7683 7.72999 32.0234 9.83992C28.2785 11.9498 25.0199 13.7661 24.7821 13.8761C24.4185 14.0442 24.2444 14.0725 23.6885 14.0535C23.325 14.0411 23.0274 14.003 23.0274 13.9688C23.0274 13.793 24.4251 12.0883 25.2557 11.2509C28.0234 8.46057 31.7778 6.24648 36.3151 4.72871C36.9733 4.50852 37.5863 4.3371 37.6774 4.34783C37.7684 4.35847 38.1516 4.68951 38.5289 5.08344ZM10.4927 10.5185C14.8676 12.9785 18.4742 15.0333 18.5076 15.085C18.5411 15.1367 18.5597 21.047 18.5489 28.219C18.5295 41.1897 18.5285 41.2592 18.3644 41.2801C18.2703 41.2921 14.774 39.3723 10.2349 36.8165L2.2706 32.3318L2.24939 19.2573C2.23775 12.0664 2.24732 6.13267 2.27076 6.07118C2.29412 6.00978 2.36394 5.97891 2.42592 6.00268C2.48791 6.02645 6.11792 8.05855 10.4927 10.5185ZM33.282 14.9956C30.0932 16.8214 27.4099 18.3798 27.3191 18.4588C27.1616 18.5958 27.154 18.7052 27.154 20.837C27.154 22.1368 27.1879 23.1348 27.2348 23.2226C27.3766 23.4875 27.7483 23.5595 28.1126 23.3925C28.7689 23.0918 39.7285 16.7796 39.8328 16.6422C39.916 16.5327 39.9419 15.9838 39.9439 14.288L39.9465 12.0765L39.7439 11.8739C39.6233 11.7533 39.448 11.6723 39.3106 11.6737C39.1609 11.6753 37.0455 12.841 33.282 14.9956ZM38.69 14.66L38.6673 15.9156L33.5915 18.823C30.7999 20.422 28.487 21.7326 28.4518 21.7353C28.4165 21.738 28.398 21.1779 28.4105 20.4907L28.4333 19.2412L33.509 16.3303C36.3007 14.7294 38.6135 13.4161 38.6488 13.412C38.684 13.4079 38.7026 13.9695 38.69 14.66ZM24.0828 16.1074L24.1065 16.8708H21.9576H19.8087V16.1418C19.8087 15.7408 19.8341 15.3874 19.865 15.3564C19.8961 15.3253 20.8525 15.3098 21.9902 15.322L24.0591 15.344L24.0828 16.1074ZM24.1003 18.9341V19.6769H21.9545H19.8087V18.9341V18.1913H21.9545H24.1003V18.9341ZM24.1003 28.6317V36.3484H21.9545H19.8087V28.6317V20.9149H21.9545H24.1003V28.6317ZM21.4946 24.5037L21.2896 24.7085L21.3126 28.6788L21.3355 32.6492L21.5304 32.8069C21.7792 33.0083 22.1298 33.0083 22.3786 32.8068L22.5735 32.6491V28.6317V24.6142L22.3786 24.4565C22.1064 24.236 21.7427 24.2554 21.4946 24.5037ZM24.1003 38.3292V39.072H21.9545H19.8087V38.3292V37.5864H21.9545H24.1003V38.3292ZM24.0827 41.1146L24.0591 41.9193H21.9545H19.8499L19.8263 41.1146L19.8027 40.31H21.9545H24.1063L24.0827 41.1146Z" fill="#1A136F" stroke="#1A136F" stroke-width="0.5"/>
</svg>
