<svg width="37" height="43" viewBox="0 0 37 43" fill="none" xmlns="http://www.w3.org/2000/svg">
<path fill-rule="evenodd" clip-rule="evenodd" d="M3.24858 1.09046C2.35171 1.38647 1.68458 1.98315 1.26518 2.86428L1 3.42134V21.5094V39.5974L1.26518 40.1545C1.60192 40.8621 2.10018 41.3774 2.78429 41.7257L3.32286 42H15.6158H27.9087L28.4328 41.7332C29.1009 41.393 29.6497 40.8247 29.9754 40.136L30.2316 39.5941L30.2529 32.183L30.2742 24.7721L30.1037 24.5843C29.8871 24.3458 29.4793 24.3325 29.2624 24.5569C29.1096 24.7149 29.1073 24.8242 29.1073 31.7307C29.1073 36.4752 29.0801 38.8755 29.0231 39.1503C28.9015 39.7366 28.531 40.2543 28.0218 40.5497L27.5953 40.797H15.6158H3.63627L3.23401 40.5777C2.83112 40.3579 2.57889 40.0792 2.3079 39.554C2.16771 39.2823 2.16306 38.7014 2.16306 21.5094V3.7455L2.36861 3.34451C2.60967 2.87415 2.8105 2.6702 3.28735 2.41124L3.63627 2.22174L12.7612 2.20008L21.8861 2.17843L21.9122 4.60603C21.9372 6.91878 21.9469 7.05544 22.1168 7.49492C22.4543 8.36764 23.1349 9.05871 24.0213 9.42898C24.3797 9.57863 24.6318 9.59796 26.7424 9.63709L29.0685 9.68016L29.0895 11.361C29.1094 12.9556 29.1191 13.0511 29.2775 13.2256C29.5012 13.4719 29.8365 13.4643 30.085 13.2074L30.2803 13.0053L30.2559 11.0621C30.2327 9.20226 30.2236 9.10153 30.0454 8.71778C29.7746 8.13418 23.3496 1.48792 22.788 1.21036L22.4003 1.01876L12.9795 1.00345C5.51965 0.991257 3.49414 1.00938 3.24858 1.09046ZM26.4522 8.33917C24.9987 8.35809 24.6732 8.34069 24.3887 8.22914C23.922 8.04596 23.5332 7.66991 23.3192 7.19458C23.1464 6.81083 23.1384 6.71139 23.1377 4.94895L23.1369 3.10488L25.6574 5.71084L28.1779 8.31679L26.4522 8.33917ZM4.75459 4.9824C4.62991 5.11135 4.52795 5.29453 4.52795 5.38956C4.52795 5.4846 4.62991 5.66777 4.75459 5.79673L4.98123 6.03115H7.97751C11.0385 6.03115 11.1838 6.01783 11.4069 5.71733C11.6129 5.43985 11.4903 5.03252 11.1431 4.84125C11.0228 4.775 10.1067 4.74798 7.97751 4.74798H4.98123L4.75459 4.9824ZM4.94332 8.43645C4.7404 8.52114 4.52795 8.82092 4.52795 9.02246C4.52795 9.10426 4.62991 9.27668 4.75459 9.40564L4.98123 9.64006L7.99177 9.63886C11.2308 9.63758 11.3226 9.62667 11.4593 9.2248C11.554 8.94635 11.4024 8.56717 11.1485 8.44752C10.917 8.33837 5.2026 8.32818 4.94332 8.43645ZM33.6543 10.522C33.3498 10.6198 33.1948 10.7792 32.6617 11.5428C32.2849 12.0823 32.1488 12.2171 31.9141 12.2836C31.7563 12.3283 31.5347 12.4465 31.4216 12.5463C31.1998 12.742 19.7353 29.3638 19.0443 30.4916C18.2112 31.8512 17.0598 34.7412 17.0701 35.4467C17.0836 36.3738 18.1619 36.992 18.9255 36.5104C19.8903 35.902 21.9807 33.8854 22.7567 32.8147C23.0511 32.4084 33.5016 17.2458 33.7936 16.8012C33.8194 16.762 34.5316 17.3077 34.5654 17.3925C34.5858 17.4439 34.0274 18.3213 33.3244 19.3421C32.6214 20.363 32.0139 21.2864 31.9744 21.394C31.8272 21.7942 32.1155 22.151 32.5861 22.151C32.8704 22.151 32.9416 22.0631 34.4857 19.806C35.6914 18.0437 35.7755 17.8902 35.7755 17.4516C35.7755 16.9112 35.4895 16.4953 34.7311 15.9326L34.5109 15.7693L34.7361 15.4173C34.9112 15.1437 34.9627 14.9691 34.9675 14.633C34.9732 14.2388 35.0136 14.1433 35.4276 13.5444C35.9301 12.8175 36.0578 12.4654 35.9781 12.0259C35.9146 11.6761 35.6755 11.415 34.954 10.9078C34.3918 10.5128 34.0235 10.4034 33.6543 10.522ZM34.7387 12.3033C34.7585 12.3364 34.6317 12.5637 34.457 12.8084L34.1394 13.2531L33.788 12.9921C33.5948 12.8485 33.4238 12.7097 33.4082 12.6835C33.3925 12.6574 33.5204 12.4309 33.6923 12.1803L34.0048 11.7247L34.3538 11.9839C34.5457 12.1264 34.7189 12.2702 34.7387 12.3033ZM33.0811 13.9879C33.4543 14.2616 33.7587 14.541 33.7578 14.6091C33.7564 14.7076 24.9285 27.6205 24.6892 27.8739C24.62 27.9472 23.037 26.8217 23.0755 26.7265C23.088 26.6958 25.1393 23.7054 27.6341 20.0813C30.1769 16.3874 32.2211 13.4917 32.2863 13.4912C32.3503 13.4908 32.708 13.7143 33.0811 13.9879ZM23.1725 28.3864C23.627 28.7205 23.8948 28.9687 23.8718 29.0348C23.8513 29.0936 23.32 29.885 22.691 30.7935C21.9172 31.9112 21.2966 32.7084 20.772 33.2589C19.9978 34.0713 18.353 35.5148 18.2835 35.4428C18.2226 35.38 18.9379 33.3955 19.3328 32.5317C19.5358 32.088 19.8333 31.5106 19.9942 31.2486C20.5172 30.3965 22.2959 27.845 22.3668 27.845C22.4048 27.845 22.7674 28.0887 23.1725 28.3864ZM8.28851 33.0456C7.31952 33.5207 6.0759 34.7517 4.77599 36.5222C4.09289 37.4528 4.04349 37.6217 4.35899 37.948C4.78219 38.3856 5.00248 38.2666 5.80731 37.1651C6.66495 35.9914 8.0055 34.6116 8.60951 34.2809C8.87136 34.1375 9.12878 34.0203 9.18158 34.0203C9.36 34.0203 9.19097 34.6364 8.66906 35.8887C8.3586 36.6335 8.14406 37.269 8.11762 37.5221C8.079 37.8918 8.09583 37.9585 8.27478 38.1436C8.42389 38.2977 8.55516 38.351 8.78661 38.351C9.04605 38.351 9.23757 38.2524 9.93672 37.7593C10.8934 37.0844 11.5648 36.7145 12.0735 36.582C12.5124 36.4677 12.7806 36.5494 13.4585 37.0044C14.5321 37.7247 15.636 38.1104 16.6242 38.1104C17.1095 38.1104 17.2256 38.0591 17.3632 37.7838C17.5176 37.4751 17.5065 37.3524 17.3022 37.112C17.1493 36.932 17.0352 36.8969 16.3777 36.828C15.4864 36.7347 15.0267 36.5603 14.1415 35.98C13.2591 35.4015 12.8768 35.2733 12.1775 35.3217C11.5947 35.3621 10.9437 35.617 10.1762 36.1055L9.79847 36.3458L9.92524 36.0452C10.4863 34.7144 10.6158 33.772 10.299 33.3247C9.90601 32.77 9.08342 32.6558 8.28851 33.0456Z" fill="#1A136F" stroke="#1A136F" stroke-width="0.5"/>
</svg>
