<svg width="39" height="39" viewBox="0 0 39 39" fill="none" xmlns="http://www.w3.org/2000/svg">
<path fill-rule="evenodd" clip-rule="evenodd" d="M12.2715 1.19468C10.6894 1.39524 8.17156 2.2782 7.44992 2.88542C7.01843 3.24852 7.10832 3.90242 7.6191 4.11582C7.90579 4.23565 7.9125 4.23384 8.84473 3.78461C11.5808 2.46613 14.4931 2.24768 17.3118 3.14932C17.6834 3.26821 17.9594 3.39186 17.9251 3.42411C17.8907 3.45636 17.6161 3.67719 17.3148 3.9149C16.5343 4.53071 13.2155 7.90144 12.9728 8.32484C12.1843 9.7006 12.9556 11.3667 14.6443 11.9357C15.4563 12.2092 16.6699 12.093 17.8986 11.6241C18.1566 11.5257 19.7615 10.8581 21.4652 10.1407C23.169 9.42322 24.5965 8.83619 24.6375 8.83619C24.6786 8.83619 25.4451 9.56664 26.3409 10.4594C27.8543 11.9675 27.988 12.0826 28.227 12.0826C28.7553 12.0826 29.1254 11.5207 28.904 11.0544C28.8414 10.9223 27.9694 9.99588 26.9663 8.99555C25.3606 7.39434 25.1154 7.17691 24.9166 7.17691C24.7855 7.17691 23.3183 7.75527 21.4209 8.55491C17.4241 10.2394 17.0394 10.3884 16.3021 10.5378C15.8313 10.6332 15.6409 10.6409 15.3247 10.5774C14.4527 10.4023 13.9154 9.65833 14.2399 9.0757C14.4104 8.76975 17.8707 5.32983 18.4254 4.91494C19.6723 3.98221 21.0384 3.32484 22.4807 2.96362C23.5905 2.68566 24.3673 2.6089 25.654 2.65016C27.8693 2.72122 29.7744 3.34273 31.6418 4.60357C32.5406 5.21044 33.9582 6.64464 34.5808 7.57694C36.2293 10.0454 36.8695 12.9884 36.4006 15.9423C36.3034 16.5545 35.9678 17.9167 35.8967 17.9879C35.8787 18.0058 35.2549 17.3977 34.5105 16.6365L33.1568 15.2524L32.8277 15.2547C32.5633 15.2565 32.4619 15.296 32.3127 15.4553C32.0743 15.71 32.0163 15.9102 32.1098 16.1562C32.151 16.2644 33.004 17.1957 34.0054 18.2256C35.0068 19.2555 35.8816 20.2019 35.9493 20.3288C36.2193 20.834 36.0667 21.6852 35.6338 22.089C35.0638 22.6206 34.285 22.5869 33.4815 21.9959C33.1537 21.7547 32.8082 21.7956 32.5256 22.1091C32.2776 22.3842 32.2711 22.6611 32.5052 22.9835C32.6031 23.1184 32.7362 23.301 32.801 23.3893C33.0871 23.7796 33.0615 24.4928 32.7449 24.9527C32.5026 25.3048 32.249 25.4906 31.8444 25.6125C31.3999 25.7465 30.9807 25.6672 30.6463 25.3858C30.269 25.0684 29.8653 25.0708 29.5435 25.3926C29.3263 25.6098 29.3069 26.0508 29.5035 26.303C30.0117 26.9552 30.003 27.6789 29.4794 28.2999C29.192 28.6408 28.7766 28.8311 28.3108 28.8352C27.9755 28.8383 27.8647 28.8011 27.5389 28.5768C27.0632 28.2491 26.7909 28.2357 26.4684 28.5238C26.147 28.8109 26.1458 29.1672 26.4647 29.6147C26.5914 29.7925 26.7154 30.0692 26.7405 30.2295C26.8664 31.0386 26.2105 31.8999 25.41 31.9769L25.0548 32.011L25.0297 31.295C25.0068 30.639 24.9821 30.5332 24.7353 30.0342C24.5677 29.6953 24.3409 29.3742 24.135 29.1845C23.7004 28.7839 22.99 28.4556 22.4519 28.4069L22.0276 28.3683L21.942 27.8381C21.7225 26.4772 20.6798 25.4246 19.3295 25.2008L18.8551 25.1222L18.8092 24.6828C18.6753 23.4012 17.5617 22.2568 16.2416 22.0442C15.9918 22.004 15.7812 21.9619 15.7735 21.9506C15.7659 21.9393 15.722 21.7191 15.6759 21.4612C15.3102 19.4139 13.1247 18.2422 11.3933 19.1651C11.0422 19.3522 10.5702 19.793 8.99897 21.4013L7.04195 23.4044L6.72633 23.1001C6.03037 22.429 4.94729 21.1728 4.53896 20.5632C2.7926 17.9557 2.16972 14.8018 2.79289 11.7219C2.95579 10.9171 3.41447 9.5934 3.78875 8.84809C3.97062 8.48601 4.11938 8.12263 4.11938 8.04046C4.11938 7.83066 3.92748 7.48366 3.76263 7.3955C3.52961 7.27076 3.14365 7.30958 2.92765 7.47947C2.49645 7.81862 1.66349 9.90852 1.32478 11.5013C1.14933 12.3262 1.1318 12.5525 1.12899 14.0305C1.12552 15.8628 1.23215 16.6024 1.71681 18.1065C2.38232 20.1722 3.309 21.6508 5.15087 23.5857L6.12091 24.6048L6.08491 25.2917C6.04068 26.1383 6.15799 26.5951 6.58349 27.2323C7.09267 27.9949 8.13167 28.6033 8.92445 28.6033C9.15249 28.6033 9.16944 28.6195 9.17024 28.8378C9.17507 30.1736 10.4742 31.5929 11.8327 31.7466L12.2529 31.7941L12.3302 32.2604C12.5598 33.646 13.5902 34.6917 14.9347 34.9033L15.4328 34.9817L15.5052 35.4699C15.6557 36.4835 16.2782 37.3485 17.1719 37.7859C17.6143 38.0024 17.697 38.0179 18.4036 38.0179C19.1077 38.0179 19.1968 38.0013 19.6661 37.7825C20.131 37.5657 20.3347 37.3811 22.2272 35.4621L24.2833 33.3773L24.7369 33.4573C26.1416 33.7052 27.5823 32.8006 28.0782 31.3592C28.1535 31.1404 28.2151 30.8204 28.2151 30.6481C28.2151 30.3399 28.2191 30.3347 28.46 30.3347C28.5947 30.3347 28.9125 30.2706 29.1664 30.1922C30.3268 29.8338 31.1183 28.9122 31.3311 27.6717C31.4183 27.1626 31.4197 27.1605 31.6501 27.1605C31.974 27.1605 32.6696 26.9322 33.0126 26.7133C33.7728 26.2282 34.3964 25.256 34.4703 24.4407L34.5094 24.009L35.0105 23.9315C37.0639 23.6136 38.1951 21.4034 37.2311 19.5925L37.0161 19.1887L37.1685 18.7919C37.4209 18.1346 37.658 17.292 37.8276 16.4502C38.0454 15.3686 38.0599 12.9358 37.8551 11.8301C37.0753 7.61972 34.4817 4.1824 30.7237 2.37898C27.4828 0.823798 23.8178 0.722942 20.3897 2.09459L19.5569 2.42782L18.6631 2.06602C17.6749 1.66606 16.3143 1.30376 15.3755 1.19064C14.67 1.10559 12.9566 1.10782 12.2715 1.19468ZM4.83525 4.93493C4.6699 5.10035 4.62438 5.21044 4.62438 5.44548C4.62438 5.68052 4.6699 5.79061 4.83525 5.95603C5.34544 6.46623 6.17256 5.99355 6.03672 5.26945C5.93435 4.72384 5.23975 4.53042 4.83525 4.93493ZM30.0131 13.1592C29.496 13.6763 29.9968 14.539 30.7102 14.36C31.2529 14.2238 31.4326 13.5576 31.0342 13.1592C30.8688 12.9938 30.7587 12.9483 30.5236 12.9483C30.2886 12.9483 30.1785 12.9938 30.0131 13.1592ZM13.4735 20.5662C14.1161 20.9634 14.4276 21.9506 14.086 22.5072C13.8858 22.8335 9.90126 26.8624 9.64486 26.9978C8.8479 27.4184 7.68951 26.7348 7.54291 25.7572C7.44595 25.1105 7.48433 25.0581 9.77551 22.7173C10.944 21.5234 12.008 20.4915 12.1399 20.4243C12.4948 20.2433 13.0462 20.302 13.4735 20.5662ZM16.3319 23.5784C17.0731 23.8891 17.5114 24.7192 17.3178 25.446C17.2468 25.7125 16.9497 26.0416 15.0964 27.9055C13.9197 29.089 12.8632 30.1067 12.7488 30.1669C12.4763 30.3102 11.9091 30.302 11.6087 30.1503C11.2763 29.9825 10.9843 29.6973 10.822 29.3817C10.6652 29.0767 10.6356 28.3968 10.7683 28.1477C10.9061 27.8893 15.002 23.7441 15.2517 23.6105C15.5309 23.4609 16.0171 23.4465 16.3319 23.5784ZM19.6078 26.8382C20.3447 27.2055 20.7129 28.1549 20.3665 28.7949C20.2988 28.9201 19.2803 29.9975 18.1035 31.1892C15.7783 33.5434 15.837 33.4997 15.1085 33.4176C14.6422 33.3651 14.2276 33.0544 13.9849 32.5758C13.76 32.1323 13.7331 31.7581 13.8973 31.3605C14.0135 31.0791 17.951 27.0558 18.3676 26.7927C18.6767 26.5975 19.1602 26.6152 19.6078 26.8382ZM22.4978 29.914C23.3562 30.1301 23.858 31.2732 23.4321 32.0422C23.2667 32.3407 19.3916 36.2587 19.1294 36.3925C18.5341 36.6962 17.9553 36.6389 17.4896 36.23C16.9783 35.7812 16.8262 35.0749 17.1074 34.4554C17.2098 34.2297 17.844 33.5455 19.3242 32.064C21.0882 30.2985 21.4406 29.9781 21.6861 29.9167C22.0808 29.8181 22.1168 29.818 22.4978 29.914Z" fill="#1A136F" stroke="#1A136F" stroke-width="0.5"/>
</svg>
