<svg width="66" height="66" viewBox="0 0 66 66" fill="none" xmlns="http://www.w3.org/2000/svg">
<path fill-rule="evenodd" clip-rule="evenodd" d="M5.28562 0.425581C4.73807 0.601362 4.01244 0.91689 3.67301 1.1266C2.63818 1.76609 1.16057 3.50615 0.715137 4.6097L0.304688 5.6266V24.5231V43.4196L0.86455 44.6013C1.53322 46.0129 2.7041 47.3175 3.87322 47.9538C5.71313 48.9553 5.73387 48.9567 18.7986 48.9567H30.8027V56.931C30.8027 64.7323 30.8106 64.9153 31.1671 65.3685L31.5313 65.8317H40.9035C49.8662 65.8317 50.2937 65.8171 50.6904 65.4959C51.1012 65.1635 51.106 65.1206 51.1587 61.1893L51.212 57.2184H54.1031C58 57.2184 57.6973 57.5958 57.6973 52.736V48.9567H58.5393C61.4266 48.9567 64.0461 47.272 65.3112 44.6013L65.8711 43.4196V24.5231V5.6266L65.4483 4.57191C64.8591 3.10185 62.9466 1.18935 61.4766 0.600131L60.4219 0.177378L33.3516 0.141693C7.61279 0.107943 6.23221 0.121831 5.28562 0.425581ZM60.6855 3.05316C61.765 3.61935 62.3904 4.23476 62.9431 5.27503L63.4102 6.15394V24.4352V42.7164L62.9174 43.7198C62.0927 45.3992 60.6388 46.2975 58.7208 46.3122L57.7228 46.32L57.6621 41.6178C57.606 37.279 57.5714 36.8352 57.2119 35.8729C56.0781 32.8374 53.7921 30.5497 50.742 29.3989C49.7265 29.0157 49.4909 29.0041 41.7256 28.9547C33.0352 28.8993 32.73 28.9269 30.9785 29.922C30.5435 30.1692 28.6243 31.9214 26.7137 33.8156L23.2399 37.2598L19.6385 33.6616L16.0371 30.0634V22.7229C16.0371 15.6168 16.0259 15.3712 15.6855 15.0309C15.2558 14.6011 14.3399 14.57 13.8977 14.9703C13.5964 15.2429 13.5762 15.704 13.5762 22.2959V29.3307L11.0273 31.9001C8.9018 34.0427 8.47852 34.5554 8.47852 34.9884C8.47852 35.4347 9.23525 36.2644 13.8827 40.9136L19.287 46.32L12.872 46.3122C8.03924 46.3064 6.29777 46.2477 5.81103 46.0739C4.75758 45.6975 3.79254 44.8077 3.25834 43.7198L2.76562 42.7164V24.4352V6.15394L3.18047 5.36292C3.91207 3.9681 5.02547 3.06775 6.45703 2.7139C6.74707 2.64218 18.8892 2.59595 33.4395 2.61089L59.8945 2.63832L60.6855 3.05316ZM39.4345 11.6177C34.8438 12.8521 32.4646 17.868 34.4535 22.1182C36.6656 26.8453 42.8882 27.9905 46.5856 24.351C48.3088 22.6547 49.1573 20.1089 48.7639 17.8147C48.0012 13.3677 43.6573 10.482 39.4345 11.6177ZM43.2832 14.3413C47.1337 16.0807 47.3047 21.4761 43.5711 23.4271C42.3816 24.0486 40.4552 24.0947 39.2246 23.5311C38.195 23.0595 37.1882 22.0527 36.7165 21.0231C36.153 19.7925 36.199 17.8661 36.8206 16.6766C37.3766 15.6127 38.4714 14.6196 39.4837 14.2604C40.5693 13.8755 42.3352 13.9131 43.2832 14.3413ZM48.9435 31.5745C51.962 32.2095 54.4054 34.6528 55.0403 37.6713C55.1681 38.2785 55.2363 41.416 55.2363 46.6801V54.7575H53.2148H51.1934V47.8403C51.1934 43.4637 51.1255 40.7287 51.0088 40.3938C50.8311 39.8841 50.2325 39.4645 49.6829 39.4645C49.538 39.4645 49.2255 39.6587 48.9882 39.896L48.5566 40.3274V51.8492V63.3707H41.0016H33.4465L33.399 51.2262L33.3516 39.0818L32.9365 38.7457C32.0696 38.0438 31.8333 38.1932 28.3523 41.6428C26.558 43.421 24.8367 45.003 24.5273 45.1584C23.8091 45.5193 22.6818 45.52 21.9609 45.1603C21.6516 45.0058 19.1644 42.6537 16.4338 39.9331L11.4693 34.9868L12.914 33.5347L14.3586 32.0826L18.5021 36.2129C22.3039 40.0026 22.6957 40.3434 23.2526 40.3443C23.8119 40.345 24.1619 40.0365 27.7266 36.4013C31.495 32.5582 32.0687 32.0857 33.5273 31.6245C34.4611 31.3292 47.5749 31.2866 48.9435 31.5745ZM30.8027 44.5621V46.32H29.0043H27.2059L28.957 44.5621C29.9201 43.5953 30.7294 42.8043 30.7554 42.8043C30.7815 42.8043 30.8027 43.5953 30.8027 44.5621Z" fill="#172A6C"/>
</svg>
