<svg width="62" height="60" viewBox="0 0 62 60" fill="none" xmlns="http://www.w3.org/2000/svg">
<path fill-rule="evenodd" clip-rule="evenodd" d="M40.305 0.627862C39.6635 1.03564 39.5671 1.22775 38.7869 3.65357C38.2067 5.45808 38.1867 5.56354 38.3197 6.11951C38.52 6.95601 39.1073 7.52489 40.114 7.85738C40.553 8.00226 40.8909 8.15638 40.8652 8.1997C40.8393 8.24302 40.5487 9.13078 40.2194 10.1724L39.6203 12.0663L37.874 12.0272C36.9136 12.0058 35.6229 12.0463 35.0058 12.1171C34.0393 12.2281 33.8473 12.2877 33.6183 12.5474C33.2703 12.9422 33.2817 13.3673 33.6502 13.7366C33.945 14.0321 33.9596 14.0339 35.2149 13.9384C40.6708 13.5227 45.3511 14.715 49.708 17.6304C57.0386 22.5356 60.7161 31.5154 58.9665 40.2377C57.8467 45.82 54.4256 50.9711 49.767 54.089C44.0933 57.8864 37.4489 58.8885 30.9318 56.9298C29.1467 56.3933 26.1396 54.9132 24.6187 53.8225C22.4636 52.2769 20.2289 49.8995 18.8588 47.6948C15.2411 41.8731 14.4532 35.0417 16.6626 28.6516C17.6543 25.7829 19.0026 23.5052 21.18 21.0203C23.1531 18.7684 26.5671 16.4287 29.4964 15.3208C30.8469 14.81 30.9644 14.739 31.0986 14.353C31.3183 13.7217 30.92 13.1908 30.2265 13.1908C29.8247 13.1908 28.1429 13.8456 26.7712 14.5361L25.6815 15.0846H22.0715C19.0744 15.0846 18.4027 15.1152 18.1149 15.2643C17.7208 15.4686 17.5609 15.917 17.7203 16.3712C17.9085 16.9077 18.2314 16.9749 20.6325 16.9767L22.8507 16.9785L21.7854 17.8744C19.9995 19.3763 18.2781 21.4539 16.9201 23.7464C16.2628 24.8557 15.1668 27.137 15.1668 27.3956C15.1668 27.4707 13.9889 27.5132 11.9103 27.5132H8.65374L8.30857 27.8592C8.11868 28.0495 7.96339 28.3199 7.96339 28.4602C7.96339 28.6004 8.11868 28.8708 8.30857 29.0611L8.65374 29.4071H11.556C13.1522 29.4071 14.4583 29.4264 14.4583 29.4501C14.4583 29.4736 14.3549 29.9131 14.2285 30.4266C13.7303 32.4514 13.5983 33.9179 13.6758 36.5683C13.7159 37.9354 13.7812 39.2538 13.8211 39.4979L13.8937 39.9418H9.15137C5.14165 39.9418 4.35541 39.9696 4.06231 40.1215C3.44565 40.4412 3.44565 41.3363 4.06231 41.656C4.35612 41.8083 5.1635 41.8357 9.3585 41.8357H14.3079L14.7808 43.2856C15.7735 46.3297 17.4038 49.2098 19.5045 51.6305L20.1466 52.3703H16.1747C12.8541 52.3703 12.146 52.3998 11.8562 52.55C11.2395 52.8697 11.2395 53.7648 11.8562 54.0845C12.1501 54.2369 12.9606 54.2642 17.1824 54.2642H22.1619L23.0275 54.9171C25.8454 57.0431 29.1812 58.5444 32.7621 59.2984C34.805 59.7285 38.43 59.8384 40.5782 59.5353C49.6464 58.256 57.1261 52.0616 59.9783 43.4691C61.9874 37.4166 61.5776 31.0853 58.8118 25.4418C56.8828 21.5056 54.2368 18.4557 50.6403 16.0232L49.7847 15.4445L50.0679 14.5248C50.2237 14.019 50.5044 13.1523 50.6919 12.5989C51.0751 11.4675 51.0153 11.498 52.213 11.8208C53.1315 12.0683 53.7125 11.9396 54.3717 11.3427C54.7826 10.9707 54.8978 10.7238 55.4869 8.95204C56.1823 6.86073 56.2603 6.31127 55.9536 5.66344C55.5831 4.88104 55.131 4.62584 52.642 3.79419C51.353 3.36357 50.1763 3.01119 50.0273 3.01119C49.671 3.01119 49.1766 3.51638 49.1766 3.88048C49.1766 4.47847 49.5183 4.67993 51.906 5.4898C54.0187 6.20639 54.1978 6.28913 54.2281 6.56221C54.2713 6.95305 53.2841 9.88868 53.0623 10.0289C52.8425 10.1679 40.2176 6.03109 40.1253 5.78986C40.0409 5.56946 41.1686 2.16806 41.3493 2.09775C41.4283 2.06709 42.5442 2.39319 43.8291 2.82251C45.1141 3.25183 46.2554 3.60302 46.3655 3.60302C46.4754 3.60302 46.7102 3.47826 46.8869 3.32581C47.2773 2.98917 47.3221 2.39805 46.9821 2.06839C46.8576 1.94766 45.6905 1.49786 44.3885 1.0689C41.617 0.155459 41.1307 0.103022 40.305 0.627862ZM46.0814 9.83092C47.8162 10.3938 49.2544 10.8707 49.2774 10.8907C49.3291 10.9356 48.2314 14.2828 48.1264 14.4004C48.0846 14.4471 47.4402 14.2233 46.6944 13.903C45.3572 13.3286 43.516 12.7493 42.1688 12.4791C41.6173 12.3686 41.4898 12.3014 41.5337 12.1444C42.0179 10.4139 42.6442 8.6985 42.7738 8.74833C42.8582 8.78076 44.3466 9.26796 46.0814 9.83092ZM1.2695 15.2022C0.709875 15.4318 0.591904 16.229 1.04985 16.6879L1.33965 16.9785H7.11551C12.7799 16.9785 12.8973 16.9738 13.2024 16.7332C13.6055 16.4155 13.6379 15.7077 13.2651 15.3693C13.0287 15.1548 12.7372 15.1426 7.2721 15.12C4.10164 15.1069 1.41192 15.1437 1.2695 15.2022ZM35.1239 17.1748C34.2012 17.2942 31.9547 17.8496 31.0662 18.1779C27.1006 19.6436 23.5623 22.5201 21.4445 26C17.5936 32.3277 17.7565 40.1941 21.8668 46.3875C22.9481 48.0168 25.3196 50.3957 26.92 51.4565C33.451 55.7852 41.405 55.7806 47.9366 51.4441C49.5126 50.3977 51.9142 48.001 52.9391 46.452C54.3134 44.3746 55.2559 42.1364 55.8128 39.6269C56.0342 38.6298 56.0717 38.0961 56.0738 35.9173C56.0758 33.7264 56.0398 33.2053 55.815 32.1712C54.1823 24.6613 48.616 19.0658 41.1602 17.4394C40.2822 17.2479 39.5157 17.1838 37.7809 17.1565C36.5469 17.1371 35.3513 17.1454 35.1239 17.1748ZM40.333 19.1629C40.8924 19.261 41.4574 19.3823 41.5887 19.4324C41.8158 19.5189 41.7264 19.8303 39.7754 25.753L37.7232 31.9826L37.0436 32.0345C36.4992 32.0759 35.7406 32.3332 35.115 32.6887C35.0776 32.71 33.6732 31.4743 31.9941 29.9427C29.5002 27.6679 28.8791 27.1581 28.6026 27.1581C28.1509 27.1581 27.6843 27.6328 27.6843 28.0924C27.6843 28.4644 28.2843 29.0624 32.371 32.7632L33.9204 34.1662L33.7398 34.6976C33.4928 35.4241 33.5867 36.7428 33.938 37.484C34.4198 38.5005 35.5455 39.4058 36.6161 39.6377L36.9866 39.7179L37.1324 41.075C37.2989 42.624 37.4941 43.0193 38.0925 43.0193C39.0189 43.0193 39.1725 42.637 38.9539 40.875C38.8621 40.1339 38.7864 39.5153 38.7858 39.5003C38.7852 39.4853 39.001 39.3625 39.2654 39.2273C39.5299 39.092 39.9759 38.7412 40.2566 38.4475L40.7671 37.9136L46.9498 39.9525C50.3504 41.0741 53.1553 42.0105 53.1833 42.0336C53.2976 42.128 51.8584 44.8159 51.1962 45.7443C49.9955 47.428 48.285 49.0563 46.5513 50.166L45.8747 50.5992L45.3514 49.5549C44.7823 48.4191 44.6718 48.287 44.1897 48.1657C43.9297 48.1004 43.8004 48.1531 43.5112 48.443C43.3147 48.64 43.154 48.9128 43.154 49.0493C43.154 49.1858 43.3928 49.7742 43.6847 50.3567C44.1662 51.3175 44.1963 51.4259 44.0094 51.5247C43.6009 51.7407 41.5383 52.3661 40.556 52.5718C39.1368 52.8691 35.8508 52.8664 34.268 52.5666C33.6349 52.4467 33.0969 52.3135 33.0726 52.2707C33.0483 52.2278 33.18 51.7134 33.3652 51.1275C33.7719 49.8413 33.7795 49.6814 33.4501 49.33C33.1304 48.9888 32.5007 48.963 32.1862 49.2782C32.0644 49.4004 31.8186 49.9464 31.6402 50.4915C31.4618 51.0366 31.2754 51.527 31.226 51.5813C31.1043 51.7153 29.3742 50.8731 28.2157 50.116C26.1339 48.7554 24.4638 47.0696 23.1513 45.0042L22.7202 44.326L23.7621 43.8015C24.9462 43.2054 25.1257 43.0367 25.1257 42.5208C25.1257 42.1077 24.6429 41.5989 24.2507 41.5989C24.1232 41.5989 23.5424 41.8387 22.9601 42.1319L21.9014 42.6648L21.7249 42.2415C20.9098 40.286 20.5466 38.3432 20.5429 35.9173C20.54 34.0691 20.7828 32.0056 21.055 31.5642C21.1226 31.4546 21.4011 31.5061 22.1928 31.7743C23.4378 32.1962 23.5445 32.2028 23.9486 31.8842C24.3305 31.5832 24.3752 30.9433 24.0381 30.6053C23.9162 30.4832 23.3715 30.2368 22.8277 30.058C22.2838 29.8791 21.796 29.6938 21.7436 29.6461C21.5863 29.503 23.0212 26.817 23.8315 25.7377C24.8088 24.4359 26.5336 22.7769 27.8024 21.9181C28.3545 21.5444 28.8624 21.2389 28.931 21.2393C28.9996 21.2395 29.2387 21.6212 29.4624 22.0874C30.0505 23.3135 30.212 23.4887 30.7546 23.4887C31.1057 23.4887 31.2658 23.4175 31.4545 23.1768C31.5892 23.0053 31.6993 22.7646 31.6993 22.6418C31.6993 22.5191 31.4614 21.9438 31.1705 21.3633L30.6417 20.3078L31.3144 20.0556C32.8303 19.4871 34.2711 19.1495 36.0687 18.9414C36.8274 18.8536 39.3038 18.9821 40.333 19.1629ZM44.742 20.5827C49.6324 22.9354 53.11 27.5496 54.1015 33.0012C54.465 34.9999 54.3085 38.7516 53.8078 40.0418C53.7302 40.2416 53.1914 40.0848 47.5104 38.2092L41.2978 36.1583L41.2335 35.4476C41.1503 34.5279 40.7667 33.7465 40.0576 33.0524L39.4889 32.4956L41.528 26.2775C42.6497 22.8574 43.5853 20.0584 43.6074 20.0576C43.6293 20.0568 44.1399 20.293 44.742 20.5827ZM4.55935 21.632C4.21831 21.996 4.22563 22.5464 4.57588 22.8763C4.84666 23.1313 4.89165 23.1336 9.34551 23.1336C13.5626 23.1336 13.8586 23.1199 14.1145 22.9122C14.3121 22.7519 14.3875 22.5678 14.3875 22.2459C14.3875 21.9239 14.3121 21.7398 14.1145 21.5796C13.8586 21.3718 13.5621 21.3581 9.32898 21.3581H4.8162L4.55935 21.632ZM1.01667 34.0606C0.67563 34.4246 0.682951 34.975 1.0332 35.3049C1.30115 35.5571 1.37566 35.5622 4.80356 35.5622H8.30054L8.54522 35.2503C8.86997 34.8366 8.85438 34.4323 8.50011 34.0773L8.21032 33.7867H4.74192H1.27352L1.01667 34.0606ZM38.0116 33.9179C38.9309 34.1737 39.6209 35.2817 39.4286 36.1936C39.2156 37.2043 38.4389 37.845 37.4267 37.845C35.1921 37.845 34.6193 34.7083 36.7181 33.9645C37.2988 33.7587 37.4234 33.7542 38.0116 33.9179ZM6.44878 46.4891C6.10774 46.8531 6.11506 47.4035 6.46531 47.7334C6.7283 47.9809 6.83422 47.9907 9.24584 47.9907C11.7503 47.9907 11.7534 47.9904 12.0428 47.7002C12.3971 47.3452 12.4126 46.9408 12.0879 46.5271L11.8432 46.2152H9.27442C6.74188 46.2152 6.70196 46.2191 6.44878 46.4891Z" fill="#172A6C"/>
</svg>
