<svg width="70" height="57" viewBox="0 0 70 57" fill="none" xmlns="http://www.w3.org/2000/svg">
<path fill-rule="evenodd" clip-rule="evenodd" d="M14.1013 0.967563C12.6836 1.08175 9.80102 1.57286 9.43363 1.76281C9.22275 1.87199 8.90839 2.16003 8.73512 2.40302C8.44754 2.80619 8.41602 3.01183 8.37382 4.75846L8.32769 6.67218L6.8123 6.72034C5.17151 6.77243 4.78925 6.90935 4.33015 7.60935C4.13266 7.91038 4.0837 8.35021 4.04636 10.1602L4.00118 12.3472L2.75362 12.4125C1.86681 12.4589 1.39865 12.5481 1.13488 12.721C0.322605 13.2534 0.371706 11.8943 0.371706 33.8268C0.371706 55.7795 0.320981 54.3892 1.14259 54.9462C1.50768 55.1937 2.02453 55.2044 15.3685 55.2399L29.2155 55.2769L29.7395 55.7255C30.5676 56.4346 30.9385 56.4883 35 56.4883C39.0615 56.4883 39.4324 56.4346 40.2605 55.7255L40.7845 55.2769L54.6315 55.2399C67.9755 55.2044 68.4923 55.1937 68.8574 54.9462C69.679 54.3892 69.6283 55.7795 69.6283 33.8268C69.6283 11.8943 69.6774 13.2534 68.8651 12.721C68.6013 12.5481 68.1333 12.4589 67.2468 12.4125L65.9998 12.3473L65.954 10.3018C65.9026 7.99493 65.7587 7.55456 64.8892 7.04356C64.4276 6.77243 64.1992 6.76715 49.8117 6.70059L35.2029 6.63294L34.5015 6.09177C33.0497 4.97155 30.0097 3.41474 27.7254 2.62179C24.4052 1.46923 21.6792 1.01397 17.7535 0.956604C16.1168 0.932657 14.4733 0.937528 14.1013 0.967563ZM21.3381 3.26524C25.3648 3.78097 29.6118 5.3252 32.7179 7.4033L33.9179 8.20613V28.3626V48.519L33.2909 48.0876C32.401 47.4751 29.7548 46.1864 28.2016 45.6091C26.4122 44.9439 24.0764 44.3531 21.8791 44.0098C19.519 43.6412 14.7642 43.6133 12.4884 43.9549C11.6757 44.0768 10.8995 44.1767 10.7637 44.1767C10.5256 44.1767 10.5167 43.442 10.5167 23.8974V3.61822L10.8219 3.54164C11.2273 3.43977 14.1768 3.06771 15.1158 2.99979C16.3468 2.91077 19.6808 3.0531 21.3381 3.26524ZM8.35272 26.8254C8.35285 43.6542 8.36773 44.8151 8.58943 45.2563C8.91867 45.9119 9.60745 46.3413 10.3298 46.3413C10.6513 46.3413 11.5706 46.2369 12.3726 46.1093C14.45 45.7787 19.7637 45.7819 21.7439 46.1151C25.3372 46.7197 29.0635 47.9715 31.2125 49.2956L31.686 49.5874L18.9371 49.5878L6.18818 49.5884V29.2268V8.86527H7.27031H8.35245L8.35272 26.8254ZM63.8118 29.2268V49.5884H49.947H36.0821V29.2268V8.86527H49.947H63.8118V29.2268ZM13.9528 11.294C12.6089 11.4488 12.4119 11.5345 12.1927 12.0594C12.0233 12.4649 12.0251 12.5712 12.2074 12.9239C12.3219 13.145 12.5591 13.3621 12.7348 13.4062C12.9105 13.4503 13.9898 13.4286 15.1334 13.3578C20.0542 13.0533 24.275 13.8058 28.169 15.6817C28.9874 16.076 29.9581 16.5909 30.326 16.826C30.6939 17.061 31.1542 17.2534 31.3487 17.2534C32.0482 17.2534 32.4973 16.4509 32.2128 15.7095C32.1016 15.4194 30.4745 14.4217 28.913 13.6862C26.6869 12.6375 24.4013 11.9555 21.541 11.4863C20.1246 11.254 15.3505 11.133 13.9528 11.294ZM39.802 13.148C39.2821 13.2644 38.8981 13.5261 38.7083 13.8934C38.4302 14.4313 38.4313 20.2131 38.7097 20.7514C39.0107 21.3336 39.44 21.4475 41.3339 21.4475C43.2095 21.4475 43.5528 21.3403 43.7121 20.7054C43.811 20.3113 43.5079 19.6289 43.1776 19.5021C43.0572 19.456 42.4157 19.4181 41.7522 19.4181H40.5459V17.3211V15.224H49.947H59.348V17.3211V19.4181H53.2721C49.9303 19.4181 47.0976 19.456 46.9772 19.5021C46.6469 19.6289 46.3437 20.3113 46.4426 20.7054C46.6315 21.458 46.5278 21.4475 53.7781 21.4475H60.4572L60.9171 20.9875L61.377 20.5275V17.3892C61.377 14.7042 61.3446 14.1961 61.1518 13.8697C60.6992 13.1033 61.064 13.1286 50.1499 13.1072C44.6073 13.0963 39.9508 13.1147 39.802 13.148ZM4.02472 32.2371C4.02513 43.8856 4.07274 50.0969 4.16391 50.4253C4.24007 50.6995 4.48787 51.08 4.71458 51.2709L5.12674 51.6177H34.7533C67.7474 51.6177 64.9734 51.7012 65.6019 50.6902L65.9085 50.1972L65.9447 32.3724L65.981 14.5476H66.7901H67.5993V33.8268V53.106L54.0388 53.1089C41.1442 53.1118 40.4518 53.1242 39.9372 53.3617C39.6397 53.499 39.2486 53.7717 39.0683 53.9675L38.7403 54.3236H35H31.2597L30.9317 53.9675C30.7514 53.7717 30.3604 53.499 30.0628 53.3617C29.5482 53.1242 28.8558 53.1118 15.9612 53.1089L2.40071 53.106V33.8268V14.5476H3.21231H4.02391L4.02472 32.2371ZM14.1044 17.9342C13.5108 18.0023 12.8605 18.1261 12.6591 18.2095C11.9757 18.4927 11.8858 19.606 12.5188 19.9448C12.6838 20.0331 13.8563 20.0529 15.8092 20.0003C17.8344 19.9455 19.2915 19.9724 20.1919 20.0812C23.9425 20.5341 27.2673 21.6331 30.1073 23.3588C30.5837 23.6483 31.145 23.8828 31.3616 23.8828C31.9365 23.8828 32.3196 23.4386 32.2686 22.8311C32.2338 22.4165 32.1171 22.2529 31.5507 21.8247C29.4244 20.2171 24.8662 18.5928 20.9999 18.0646C19.5129 17.8616 15.4158 17.784 14.1044 17.9342ZM14.3759 24.5734C13.4739 24.6519 12.7686 24.7833 12.5775 24.9085C11.7209 25.4699 12.0363 26.7228 13.0382 26.7385C13.2509 26.7418 14.5815 26.701 15.995 26.648C18.6303 26.549 20.3175 26.6617 22.4202 27.0773C24.9935 27.5858 27.8359 28.6503 29.8367 29.8547C31.07 30.5971 31.5905 30.7016 32.0378 30.2968C32.2036 30.1467 32.2947 29.8834 32.2947 29.554C32.2947 28.8554 31.7694 28.442 29.3864 27.2651C25.7024 25.4457 22.431 24.6623 17.8888 24.5117C16.7728 24.4748 15.1919 24.5025 14.3759 24.5734ZM38.8734 25.7867C38.4075 26.1532 38.3875 26.8256 38.8299 27.2415L39.1431 27.5357H49.9659H60.7887L61.083 27.2226C61.4731 26.8071 61.4578 26.2513 61.0449 25.8384L60.713 25.5063H49.9713C39.3092 25.5063 39.2271 25.5083 38.8734 25.7867ZM38.849 31.2501C38.2747 31.8244 38.4563 32.6701 39.2106 32.9332C39.7913 33.1356 60.1159 33.1441 60.647 32.9421C61.424 32.6466 61.6177 31.8228 61.0449 31.2501L60.713 30.918H49.947H39.181L38.849 31.2501ZM13.4548 31.3241C12.3509 31.4655 11.8686 32.0069 12.1555 32.7827C12.3852 33.4037 12.7988 33.514 14.3241 33.3607C15.5661 33.2359 15.759 33.1807 16.0288 32.8732C16.4249 32.4219 16.4149 31.9344 16.0011 31.5207C15.6402 31.1596 15.078 31.1163 13.4548 31.3241ZM19.3276 31.5759C19.1448 31.7587 19.0385 32.0355 19.0385 32.3287C19.0385 32.9593 19.506 33.3098 20.4997 33.4244C23.704 33.7939 26.9492 34.8699 29.8388 36.5206C30.8733 37.1115 31.2631 37.2691 31.5265 37.2031C32.067 37.0674 32.3183 36.6966 32.2698 36.1062C32.2319 35.645 32.1421 35.5278 31.4831 35.0789C28.8712 33.2998 24.0272 31.6258 20.7653 31.3751C19.7084 31.2938 19.5935 31.3099 19.3276 31.5759ZM39.0259 36.5414C38.3549 36.9056 38.3754 37.9739 39.0603 38.3204C39.3212 38.4524 41.7435 38.4908 49.9199 38.4923C59.0684 38.4941 60.4955 38.4676 60.8407 38.289C61.5471 37.9236 61.5471 36.9005 60.8407 36.5351C60.249 36.229 39.5904 36.2351 39.0259 36.5414ZM39.1121 41.9346C38.4045 42.2426 38.2756 43.1555 38.8734 43.6256C39.2271 43.904 39.3092 43.9061 49.9713 43.9061H60.713L61.0449 43.5739C61.6177 43.0012 61.424 42.1774 60.647 41.882C60.4024 41.789 56.7666 41.7431 49.9044 41.7467C41.5039 41.751 39.4516 41.7867 39.1121 41.9346Z" fill="#172A6C"/>
</svg>
