<svg width="66" height="64" viewBox="0 0 66 64" fill="none" xmlns="http://www.w3.org/2000/svg">
<path fill-rule="evenodd" clip-rule="evenodd" d="M6.7207 15.9602V31.1H33H59.2793V15.9602V0.820312H33H6.7207V15.9602ZM57.2578 13.9415V25.0441H55.2363H53.2148V23.0255V21.0068H48.1611H43.1074V23.0255V25.0441H25.9248H8.74219V13.9415V2.83896H33H57.2578V13.9415ZM51.1934 24.0348V25.0441H48.1611H45.1289V24.0348V23.0255H48.1611H51.1934V24.0348ZM57.2578 28.0721V29.0814H33H8.74219V28.0721V27.0628H33H57.2578V28.0721ZM8.39058 34.4534C7.4641 34.9145 6.7207 35.9753 6.7207 36.8365V37.156H3.68848H0.65625V40.184V43.2119H1.66699H2.67773V51.2865V59.3611H3.68848H4.69922V51.2865V43.2119H5.76985C6.82304 43.2119 6.84363 43.2179 7.02961 43.5771C7.57036 44.6212 8.62178 45.2237 9.91086 45.2278L10.7637 45.2306V47.7539V50.2772H8.74219H6.7207V53.3052V56.3332H7.73145H8.74219V59.8658V63.3984H9.75293H10.7637V59.8658V56.3332H15.8174H20.8711V59.8658V63.3984H21.8818H22.8926V59.8658V56.3332H23.9033H24.9141V53.3052V50.2772H22.8926H20.8711V47.7539V45.2306L21.7239 45.2278C23.013 45.2237 24.0644 44.6212 24.6052 43.5771C24.7911 43.2179 24.8117 43.2119 25.8649 43.2119H26.9355V51.2865V59.3611H27.9463H28.957V51.2865V43.2119H29.9678H30.9785V40.184V37.156H27.963H24.9473L24.8778 36.6386C24.7758 35.8792 24.1876 35.0174 23.4678 34.5729L22.8495 34.1911L15.9532 34.1565L9.05691 34.1218L8.39058 34.4534ZM42.7558 34.4534C41.8293 34.9145 41.0859 35.9753 41.0859 36.8365V37.156H38.0537H35.0215V40.184V43.2119H36.0322H37.043V51.2865V59.3611H38.0537H39.0645V51.2865V43.2119H40.1351C41.1883 43.2119 41.2089 43.2179 41.3948 43.5771C41.9356 44.6212 42.987 45.2237 44.2761 45.2278L45.1289 45.2306V47.7539V50.2772H43.1074H41.0859V53.3052V56.3332H42.0967H43.1074V59.8658V63.3984H44.1182H45.1289V59.8658V56.3332H50.1826H55.2363V59.8658V63.3984H56.2471H57.2578V59.8658V56.3332H58.2686H59.2793V53.3052V50.2772H57.2578H55.2363V47.7539V45.2306L56.0891 45.2278C57.3782 45.2237 58.4296 44.6212 58.9704 43.5771C59.1564 43.2179 59.177 43.2119 60.2302 43.2119H61.3008V51.2865V59.3611H62.3115H63.3223V51.2865V43.2119H64.333H65.3438V40.184V37.156H62.3282H59.3125L59.243 36.6386C59.1411 35.8792 58.5528 35.0174 57.8331 34.5729L57.2147 34.1911L50.3184 34.1565L43.4221 34.1218L42.7558 34.4534ZM22.5233 36.5155L22.8926 36.8842V39.6793V42.4744L22.5233 42.8432L22.154 43.2119H15.8174H9.48079L9.11149 42.8432L8.74219 42.4744V39.6793V36.8842L9.11149 36.5155L9.48079 36.1467H15.8174H22.154L22.5233 36.5155ZM56.8885 36.5155L57.2578 36.8842V39.6793V42.4744L56.8885 42.8432L56.5192 43.2119H50.1826H43.846L43.4767 42.8432L43.1074 42.4744V39.6793V36.8842L43.4767 36.5155L43.846 36.1467H50.1826H56.5192L56.8885 36.5155ZM6.7207 40.184V41.1933H4.69922H2.67773V40.184V39.1746H4.69922H6.7207V40.184ZM28.957 40.184V41.1933H26.9355H24.9141V40.184V39.1746H26.9355H28.957V40.184ZM41.0859 40.184V41.1933H39.0645H37.043V40.184V39.1746H39.0645H41.0859V40.184ZM63.3223 40.184V41.1933H61.3008H59.2793V40.184V39.1746H61.3008H63.3223V40.184ZM18.8496 47.7539V50.2772H15.8174H12.7852V47.7539V45.2306H15.8174H18.8496V47.7539ZM53.2148 47.7539V50.2772H50.1826H47.1504V47.7539V45.2306H50.1826H53.2148V47.7539ZM22.8926 53.3052V54.3145H15.8174H8.74219V53.3052V52.2959H15.8174H22.8926V53.3052ZM57.2578 53.3052V54.3145H50.1826H43.1074V53.3052V52.2959H50.1826H57.2578V53.3052Z" fill="#172A6C"/>
</svg>
