<svg width="70" height="52" viewBox="0 0 70 52" fill="none" xmlns="http://www.w3.org/2000/svg">
<path fill-rule="evenodd" clip-rule="evenodd" d="M7.09042 0.827061C5.81684 1.12714 4.60808 2.1368 4.01349 3.39734L3.66094 4.14482L3.62479 23.9533L3.58851 43.7617H2.36086C1.08469 43.7617 0.443751 43.952 0.279711 44.3794C0.233366 44.5004 0.195312 45.326 0.195312 46.2141C0.195312 47.5048 0.250763 47.9769 0.471612 48.5674C0.860578 49.6068 1.65862 50.4576 2.74792 50.9938L3.65524 51.4405H33.3538H63.0524L63.82 51.0806C64.7988 50.6217 65.6331 49.7866 66.088 48.8104C66.4027 48.135 66.4517 47.8353 66.4954 46.3131L66.5452 44.5834L66.1343 44.1726C65.7315 43.7698 65.6967 43.7617 64.3539 43.7617H62.9844V34.6054V25.4491L64.8681 25.389C66.576 25.3345 66.8224 25.2943 67.509 24.9585C68.3964 24.5242 69.0138 23.8692 69.4657 22.8822L69.7906 22.1724L69.7512 16.2165C69.7122 10.332 69.7081 10.2537 69.4051 9.68671C69.013 8.95281 68.2977 8.23862 67.5676 7.85183C67.0651 7.58572 66.7456 7.54182 65.0021 7.49901L63.0105 7.45009L62.9595 5.66155C62.916 4.1364 62.864 3.78848 62.6059 3.29921C62.2061 2.54112 61.553 1.81008 60.9175 1.40888C59.7046 0.643179 61.0538 0.677971 33.2262 0.692785C18.8468 0.700531 7.37773 0.759379 7.09042 0.827061ZM59.5188 3.10935C60.592 3.60215 60.931 4.34203 60.9398 6.21197L60.9458 7.46354L55.1358 7.50309C49.446 7.54169 49.3142 7.54875 48.7663 7.84177C47.8555 8.329 47.3957 8.79475 46.9552 9.67624L46.5396 10.5079V14.4185V18.3289L44.1273 20.5306C40.8186 23.5502 40.5597 23.8235 40.5597 24.2954C40.5597 24.5409 40.6906 24.8105 40.9104 25.0169L41.261 25.3463L51.1034 25.3829L60.9458 25.4195V34.5906V43.7617H48.2317C34.3788 43.7617 34.8102 43.738 34.6497 44.5117C34.6113 44.6972 34.5477 45.0034 34.5085 45.1922C34.3924 45.7499 33.9682 46.0722 33.3505 46.0722C32.6522 46.0722 32.2107 45.6578 32.0874 44.8869C32.0273 44.5115 31.8787 44.2316 31.6395 44.0433C31.283 43.763 31.2241 43.7617 18.5244 43.7617H5.7675V24.2679C5.7675 10.8251 5.81235 4.65529 5.91211 4.3915C6.10306 3.88606 6.688 3.27244 7.19453 3.04629C7.53049 2.89638 12.1256 2.8639 33.2887 2.862C57.9292 2.85982 58.9973 2.86988 59.5188 3.10935ZM31.4813 4.89612C30.8951 5.44219 30.9684 6.1519 31.6573 6.60338C31.9211 6.77612 32.2892 6.8101 33.4995 6.77327C34.8969 6.73059 35.0318 6.7026 35.2716 6.40618C35.6558 5.93119 35.6109 5.24662 35.173 4.90224C34.8592 4.65543 34.627 4.6205 33.296 4.6205C31.958 4.6205 31.7418 4.65339 31.4813 4.89612ZM67.0777 10.1767L67.6052 10.7044L67.6047 16.3265C67.6043 21.5874 67.5878 21.9756 67.3489 22.3673C66.7944 23.2766 67.3046 23.2398 55.2524 23.2398H44.3674L46.1671 21.5903C47.1568 20.683 48.089 19.8252 48.2385 19.684C48.496 19.4409 48.5138 19.2039 48.5782 15.1837C48.6397 11.3489 48.6707 10.8997 48.9007 10.5198C49.4487 9.61481 48.9998 9.65667 58.2097 9.65273L66.5499 9.64906L67.0777 10.1767ZM31.8958 14.2081C31.5034 14.3138 30.953 14.5182 30.6726 14.6624C29.9268 15.0461 28.9166 16.1222 28.4936 16.9836C28.1303 17.7232 28.1235 17.7855 28.0809 20.7641C28.034 24.0358 28.1166 24.5927 28.7978 25.5964L29.1135 26.0616L28.2192 26.3037C25.5045 27.0385 23.354 28.9816 22.6179 31.3647C22.3854 32.1176 22.3482 32.6292 22.3482 35.0682V37.898L22.7063 38.1796C23.1744 38.5478 23.724 38.5382 24.0815 38.1556C24.3483 37.8699 24.3703 37.6704 24.4155 35.1316C24.4589 32.6844 24.4947 32.3356 24.7747 31.6324C25.4908 29.8334 27.2272 28.6182 29.6904 28.192C31.4136 27.8939 36.5276 27.9761 37.7736 28.322C39.682 28.8519 41.0807 29.9181 41.7552 31.3575C42.1096 32.114 42.1251 32.2442 42.1906 35.0419C42.2573 37.8876 42.2647 37.9472 42.5794 38.2018C43.0262 38.5633 43.6266 38.5326 44.0315 38.1277C44.3627 37.7966 44.3651 37.7752 44.3651 35.1664C44.3651 33.2453 44.3091 32.3237 44.1571 31.7397C43.496 29.2017 41.4139 27.1644 38.6565 26.3575L37.6366 26.059L38.1129 25.0995L38.5891 24.1399V21.0057C38.5891 17.8902 38.5869 17.8668 38.2248 17.0943C37.116 14.7285 34.4605 13.5175 31.8958 14.2081ZM34.4545 16.3277C35.1648 16.5405 35.859 17.145 36.1985 17.8463C36.4563 18.3788 36.4822 18.6703 36.4795 21.0063C36.4761 23.911 36.3775 24.3216 35.4962 25.0953C34.8331 25.6774 34.1951 25.8598 33.0272 25.8008C31.817 25.7396 31.1134 25.3326 30.5441 24.364C30.1729 23.7326 30.1616 23.6537 30.1157 21.3833C30.0788 19.5665 30.1151 18.8907 30.2796 18.3248C30.7626 16.6635 32.6161 15.777 34.4545 16.3277ZM30.3095 46.4155C30.6111 47.051 31.5795 47.888 32.2432 48.0868C33.1321 48.3532 34.0407 48.2855 34.8251 47.8947C35.5601 47.5284 36.2993 46.7691 36.4339 46.242L36.512 45.9363H50.4277H64.3435V46.7088C64.3435 47.6835 63.9733 48.4717 63.3022 48.9262L62.8005 49.266L33.6384 49.3058C13.6841 49.3331 4.32132 49.301 3.98508 49.204C2.90639 48.8926 2.43139 48.2301 2.28869 46.8372L2.19641 45.9363H16.1393H30.0821L30.3095 46.4155Z" fill="#172A6C"/>
</svg>
