<svg width="65" height="68" viewBox="0 0 65 68" fill="none" xmlns="http://www.w3.org/2000/svg">
<path fill-rule="evenodd" clip-rule="evenodd" d="M9.97498 0.962645C9.28711 1.21108 8.52381 1.93356 8.18735 2.65486C7.92945 3.20743 7.87859 3.52401 7.87755 4.58164L7.87625 5.8472H5.49387C2.65213 5.8472 2.03514 5.98141 1.15504 6.79111C0.833934 7.08654 0.444413 7.56447 0.289516 7.85328L0.0078125 8.37832V31.7426V55.1068L0.288995 55.626C0.62051 56.238 1.25818 56.8642 1.89364 57.2015C2.32855 57.4325 2.99639 57.4449 16.8502 57.4801L31.3515 57.517L31.8252 58.3909C32.8626 60.3055 34.74 62.4549 36.5538 63.8048C38.9987 65.6246 41.5814 66.6805 44.6663 67.122C46.0335 67.3176 49.0805 67.2148 50.3938 66.9287C57.8307 65.3084 63.258 59.3085 64.0742 51.805C64.6896 46.1469 62.2399 40.2727 57.768 36.6833L56.6476 35.7839V22.3967C56.6476 7.09238 56.7174 8.08666 55.5606 6.93208C54.5994 5.97272 54.0829 5.8472 51.0965 5.8472H48.7141L48.7128 4.58164C48.7118 3.52674 48.6607 3.20691 48.4054 2.6598C47.2762 0.239522 43.9571 0.128671 42.681 2.46873C42.3637 3.05063 42.3024 3.33399 42.243 4.49623L42.1739 5.8472H28.2954H14.4169L14.3468 4.57813C14.2412 2.66499 13.7492 1.72614 12.5364 1.12282C11.7807 0.747045 10.7504 0.682663 9.97498 0.962645ZM11.788 3.24118L12.1681 3.62059V6.95051V10.2804L11.788 10.6598C11.3229 11.1239 10.8752 11.145 10.3871 10.7259L10.0222 10.4126V6.98153C10.0222 3.33087 10.0368 3.24066 10.6679 2.98534C11.139 2.79466 11.4004 2.8545 11.788 3.24118ZM46.3077 3.25792C46.5553 3.50506 46.5682 3.68912 46.5682 6.96531V10.4127L46.2032 10.726C45.8015 11.0708 45.5074 11.1132 45.0279 10.8952C44.4715 10.6421 44.4222 10.3147 44.4222 6.86951V3.62059L44.8176 3.22599C45.15 2.89435 45.2794 2.84463 45.6301 2.9146C45.8594 2.96042 46.1643 3.11488 46.3077 3.25792ZM7.87625 9.23943C7.87625 10.7228 8.04364 11.2869 8.70693 12.0391C9.3697 12.7904 10.0611 13.1096 11.0343 13.1132C12.3258 13.1182 13.3009 12.5479 13.9093 11.4323C14.2267 10.8504 14.2879 10.567 14.3474 9.40479L14.4164 8.05382H28.2952H42.1739L42.243 9.40479C42.3024 10.567 42.3637 10.8504 42.681 11.4323C43.2894 12.5479 44.2646 13.1182 45.5561 13.1132C46.5293 13.1096 47.2207 12.7904 47.8834 12.0391C48.5467 11.2869 48.7141 10.7228 48.7141 9.23943V8.05382H51.1952H53.6763L54.0564 8.43323L54.4366 8.81264V12.1975V15.5823H28.2952H2.15375V12.1975V8.81264L2.53391 8.43323L2.91406 8.05382H5.39516H7.87625V9.23943ZM54.4366 26.1628V34.5368L53.9489 34.3233C52.9571 33.8892 51.3491 33.374 50.2748 33.1462C48.7102 32.8146 45.0574 32.8194 43.5118 33.1552C34.8152 35.0447 29.0492 42.7251 29.7448 51.4931C29.808 52.2899 29.9937 53.4727 30.1577 54.1216L30.4557 55.3015H16.624H2.7922L2.47304 54.9828L2.15375 54.6643V36.2266V17.7889H28.2952H54.4366V26.1628ZM5.46435 21.093L5.14506 21.4115V25.4472V29.4829L5.46435 29.8014L5.78351 30.12H9.76611H13.7488L14.129 29.7406L14.5092 29.3612V25.4472V21.5332L14.129 21.1538L13.7488 20.7744H9.76611H5.78351L5.46435 21.093ZM17.8197 21.093L17.5005 21.4115V25.4472V29.4829L17.8197 29.8014L18.1389 30.12H22.1043H26.0696L26.4346 29.8068L26.7995 29.4935V25.4472V21.4009L26.4346 21.0876L26.0696 20.7744H22.1043H18.1389L17.8197 21.093ZM30.1558 21.0876L29.7908 21.4009V25.4472V29.4935L30.1558 29.8068L30.5207 30.12H34.486H38.4515L38.7706 29.8014L39.0899 29.4829V25.4472V21.4115L38.7706 21.093L38.4515 20.7744H34.486H30.5207L30.1558 21.0876ZM42.4614 21.1538L42.0812 21.5332V25.4472V29.3612L42.4614 29.7406L42.8415 30.12H46.8242H50.8069L51.126 29.8014L51.4453 29.4829V25.4472V21.4115L51.126 21.093L50.8069 20.7744H46.8242H42.8415L42.4614 21.1538ZM12.2982 25.4472V27.9134H9.76208H7.22597V25.4472V22.981H9.76208H12.2982V25.4472ZM24.6536 25.4472V27.9134H22.1175H19.5814V25.4472V22.981H22.1175H24.6536V25.4472ZM37.009 25.4472V27.9134H34.4729H31.9368V25.4472V22.981H34.4729H37.009V25.4472ZM49.3644 25.4472V27.9134H46.8283H44.2922V25.4472V22.981H46.8283H49.3644V25.4472ZM5.41467 32.2793C5.1552 32.6083 5.14506 32.7714 5.14506 36.605V40.5887L5.48047 40.9034L5.81589 41.2181L9.638 41.2561C13.8143 41.2975 14.1187 41.2525 14.3847 40.5544C14.4534 40.3741 14.5092 38.5704 14.5092 36.5303C14.5092 32.6638 14.4513 32.2221 13.918 32.0179C13.8023 31.9736 11.9023 31.9373 9.69588 31.9373H5.68414L5.41467 32.2793ZM17.7832 32.2376C17.5055 32.5327 17.5005 32.61 17.5005 36.5296C17.5005 38.8851 17.5526 40.6185 17.6278 40.7587C17.8718 41.2135 18.469 41.283 22.141 41.283C26.1479 41.283 26.4618 41.2292 26.7169 40.4987C26.9161 39.9284 26.9194 33.1717 26.7208 32.6029C26.6418 32.3765 26.4701 32.1342 26.3393 32.0643C26.1988 31.9893 24.4556 31.9373 22.0837 31.9373H18.0661L17.7832 32.2376ZM12.2982 36.5452V39.0763H9.76208H7.22597V36.5452V34.0141H9.76208H12.2982V36.5452ZM24.6536 36.5452V39.0763H22.1175H19.5814V36.5452V34.0141H22.1175H24.6536V36.5452ZM45.8529 36.0968C45.8529 37.0325 45.886 37.1742 46.1721 37.4597C46.567 37.8539 47.1273 37.8735 47.5911 37.5092C47.9136 37.2561 47.9338 37.175 47.9338 36.1284V35.0167L48.7681 35.102C51.2522 35.356 54.4826 36.7168 56.383 38.3099L56.8338 38.6877L56.0904 39.4374C55.459 40.0743 55.347 40.2586 55.347 40.6607C55.347 41.0178 55.4314 41.2005 55.6897 41.4033C56.2808 41.8673 56.7036 41.7612 57.5775 40.9293L58.3581 40.1861L58.6136 40.5074C60.3348 42.6709 61.5965 45.6147 61.9084 48.1949L61.9986 48.9412H61.0724C60.1045 48.9412 59.4744 49.1545 59.3295 49.5312C59.1764 49.9294 59.2494 50.471 59.4974 50.7765C59.7174 51.0478 59.8753 51.0883 60.8733 51.1292L62.0006 51.1754L61.9153 51.8431C61.6225 54.1371 60.7429 56.4785 59.4409 58.4306C58.9739 59.1306 58.5313 59.7408 58.4573 59.7864C58.3834 59.8321 57.9796 59.5425 57.5599 59.1431C56.7044 58.3287 56.2774 58.2242 55.6897 58.6858C55.4249 58.8936 55.347 59.069 55.347 59.4572C55.347 59.8862 55.4516 60.0724 56.0639 60.7324L56.7808 61.5051L55.8903 62.164C54.7651 62.9964 53.0946 63.8763 51.8355 64.2996C50.6901 64.6847 49.0471 65.0366 48.3944 65.0366H47.9338V63.9924C47.9338 63.0566 47.9006 62.9149 47.6145 62.6294C47.2493 62.2648 46.9083 62.2293 46.3824 62.5007C45.9086 62.7452 45.8529 62.911 45.8529 64.0737V65.0366H45.4061C44.7868 65.0366 43.2456 64.7042 42.0748 64.318C40.7215 63.8716 39.305 63.1401 38.0549 62.2419L36.9999 61.4837L37.7166 60.7609C38.6441 59.8255 38.7594 59.3649 38.2047 58.8113C37.6153 58.2231 37.2578 58.2852 36.3698 59.1306C35.9573 59.5233 35.573 59.8446 35.5159 59.8446C35.3761 59.8446 35.1715 59.5821 34.3298 58.3234C33.1163 56.5088 32.2125 54.1986 32.0044 52.3797C31.9555 51.952 31.8871 51.4999 31.8524 51.375C31.796 51.1724 31.9014 51.1479 32.8312 51.1479C33.7399 51.1479 33.919 51.1085 34.2315 50.8402C34.695 50.4423 34.7271 49.7213 34.3003 49.2953C34.0558 49.0513 33.8386 48.999 32.9095 48.9605C31.8629 48.917 31.8113 48.9009 31.8655 48.6359C31.8968 48.4825 31.9595 48.0735 32.0048 47.7267C32.2975 45.4805 33.4678 42.7527 34.9317 40.9045L35.4646 40.2316L36.2443 40.952C36.857 41.5182 37.1126 41.6715 37.4391 41.6682C37.9103 41.6635 38.1941 41.4845 38.4295 41.0437C38.6718 40.5897 38.5007 40.1637 37.7637 39.386C37.1251 38.7121 37.1086 38.676 37.3261 38.4363C37.7265 37.9946 39.3166 36.9989 40.5606 36.4107C42.0404 35.7111 44.1841 35.113 45.3651 35.0701L45.8529 35.0525V36.0968ZM46.4381 40.5312C45.8804 40.8503 45.8613 40.9677 45.857 44.0955L45.8529 47.1029L45.4302 47.3639C44.021 48.2343 43.4476 50.0098 44.1388 51.362C44.4772 52.024 45.2918 52.7588 45.9146 52.964C47.1737 53.3788 48.8171 52.8058 49.4752 51.7229L49.8196 51.156L52.2682 51.152L54.7167 51.1479L55.0969 50.7685C55.5619 50.3044 55.5831 49.8576 55.1635 49.3704L54.8498 49.0061L52.3348 48.9645L49.8196 48.9227L49.4944 48.4015C49.3156 48.1148 48.8914 47.7003 48.5515 47.4803L47.9338 47.0803V44.0459V41.0115L47.6145 40.693C47.2711 40.3502 46.8543 40.293 46.4381 40.5312ZM5.73031 43.1203C5.15052 43.4368 5.14506 43.4792 5.14506 47.674V51.6789L5.46435 51.9974L5.78351 52.3161L9.78874 52.3119C12.7319 52.3089 13.8486 52.2658 14.0002 52.1497C14.4766 51.7845 14.5092 51.4926 14.5092 47.5769V43.7292L14.129 43.3498L13.7488 42.9704L9.86963 42.9743C7.31402 42.9769 5.90173 43.0267 5.73031 43.1203ZM18.0617 43.1011C17.9055 43.1639 17.7152 43.3316 17.639 43.4737C17.5495 43.6407 17.5005 45.1568 17.5005 47.7551V51.778L17.8432 52.047C18.1727 52.3058 18.3367 52.3161 22.1278 52.3161H26.0696L26.4346 52.0029L26.7995 51.6895V47.6432V43.5969L26.4346 43.2836L26.0696 42.9704L22.2077 42.9786C20.0836 42.9831 18.218 43.0383 18.0617 43.1011ZM12.2982 47.7081V50.2393H9.76208H7.22597V47.7081V45.177H9.76208H12.2982V47.7081ZM24.6536 47.7081V50.2393H22.1175H19.5814V47.7081V45.177H22.1175H24.6536V47.7081ZM47.5825 49.4367C48.1971 49.9759 47.4462 51.2165 46.67 50.9442C46.1721 50.7694 45.8904 50.2294 46.0544 49.764C46.2872 49.1034 47.0227 48.9458 47.5825 49.4367Z" fill="#172A6C"/>
</svg>
