<svg width="60" height="60" viewBox="0 0 60 60" fill="none" xmlns="http://www.w3.org/2000/svg">
<path fill-rule="evenodd" clip-rule="evenodd" d="M15.8033 8.21998V15.7954H14.8566H13.9099V10.1138V4.43226H11.0699H8.22989V10.1138V15.7954H7.28321H6.33654V12.0077V8.21998H3.49651H0.656483V12.9546V17.6893H4.08818C5.97562 17.6893 7.51988 17.7307 7.51988 17.7813C7.51988 17.8319 7.44793 17.9785 7.35989 18.1068C6.66693 19.1186 5.35306 22.8009 4.93013 24.917C4.09138 29.1133 4.36662 34.0809 5.64428 37.8027C5.86119 38.4347 5.86095 38.4549 5.62724 39.0796C5.49672 39.4287 5.38986 39.8676 5.38986 40.0551V40.3959L3.98949 40.4353C2.67089 40.4726 2.5554 40.4958 2.01058 40.833C1.65286 41.0545 1.29513 41.4124 1.07373 41.7703L0.71565 42.3493L0.680032 45.1702L0.644531 47.9911H1.75605C3.14719 47.9911 3.74998 48.2559 4.17066 49.0516C4.51395 49.7009 4.51395 50.069 4.17066 50.7182C3.74998 51.514 3.14719 51.7788 1.75605 51.7788H0.644531L0.680032 54.5997L0.71565 57.4206L1.07373 57.9995C1.29549 58.3581 1.6525 58.7151 2.01118 58.9369L2.59042 59.2951H9.17656H15.7627L16.342 58.9369C16.7006 58.7151 17.0576 58.3581 17.2794 57.9995L17.6375 57.4206L17.6731 54.5997L17.7086 51.7788H16.5971C15.2059 51.7788 14.6031 51.514 14.1825 50.7182C13.841 50.0723 13.8397 49.7195 14.1762 49.0519C14.5765 48.2578 15.1868 47.9911 16.6035 47.9911H17.7086L17.6731 45.1702L17.6375 42.3493L17.2794 41.7703C17.058 41.4124 16.7003 41.0545 16.3425 40.833C15.7977 40.4958 15.6822 40.4726 14.3636 40.4353L12.9633 40.3959V40.0551C12.9633 38.874 11.8084 37.3505 10.5588 36.8829C9.75344 36.5814 8.7166 36.5501 7.99322 36.8055C7.71655 36.9031 7.47598 36.983 7.45882 36.983C7.39788 36.983 6.93827 35.1353 6.75923 34.1711C6.65947 33.6335 6.54232 32.6881 6.49889 32.0701L6.41996 30.9463H12.0582H17.6966V32.2398V33.5333L18.3179 33.7636C18.6595 33.8901 19.0532 34.0288 19.1926 34.0719C19.5986 34.1971 19.5944 34.554 19.1767 35.426L18.7864 36.2404L21.2887 38.728L23.7909 41.2154L24.6073 40.8312C25.4857 40.4178 25.8088 40.4134 25.932 40.8131C25.9751 40.9525 26.1138 41.3463 26.2403 41.6881L26.4704 42.3095H27.7636H29.0568V47.9319V53.5543L28.4355 53.5522C26.4235 53.5451 22.1814 52.5132 20.4207 51.6024C20.2121 51.4946 20.0255 51.4235 20.0059 51.4445C19.9543 51.5006 19.235 53.1046 19.235 53.1638C19.235 53.2673 20.7589 53.8995 21.9953 54.3089C28.8725 56.5859 36.7089 55.7584 42.9259 52.0984C44.8143 50.9868 46.421 49.7134 48.1974 47.9209L49.8836 46.2191V49.5919V52.9645L51.197 55.5972C51.9194 57.045 52.6516 58.3812 52.8241 58.5662C53.8057 59.6186 55.4283 59.6186 56.4099 58.5662C56.5824 58.3812 57.3157 57.0428 58.0395 55.5921L59.3555 52.9543L59.3234 42.7493L59.2912 32.5443L58.9722 31.8633C58.5443 30.9501 57.5944 29.9681 56.7121 29.5272C56.3201 29.3312 55.9126 29.1708 55.8067 29.1708C55.6467 29.1708 55.5899 28.9169 55.4696 27.6617C55.2764 25.6462 54.8533 23.672 54.2047 21.7597C53.7 20.2715 53.6704 20.1127 53.6729 18.9069C53.6762 17.2724 53.8513 16.8472 54.813 16.1376C56.306 15.0359 57.4122 13.544 58.0065 11.8302C58.3034 10.9741 58.3354 10.724 58.3397 9.22609C58.3435 7.943 58.2955 7.41012 58.1275 6.86539C57.2415 3.99383 55.0813 1.81731 52.2503 0.943761C51.8923 0.833326 51.0137 0.715669 50.2978 0.682172C48.6182 0.603813 47.5837 0.816399 46.0969 1.54554C45.1417 2.01403 44.8122 2.25905 43.9042 3.1758C42.8116 4.27897 42.0614 5.46808 41.7114 6.65162C41.6297 6.92825 41.5519 7.15468 41.5387 7.15468C41.5254 7.15468 41.0601 6.94162 40.5046 6.68122C35.2368 4.21198 28.4395 3.73733 22.8134 5.44583C22.276 5.60905 21.7567 5.77311 21.6597 5.81028C21.5068 5.86899 21.4833 5.53105 21.4833 3.26126V0.644531H18.6433H15.8033V8.21998ZM19.59 9.16691V15.7954H18.6433H17.6966V9.16691V2.53839H18.6433H19.59V9.16691ZM51.9408 2.90734C53.9075 3.56629 55.4644 5.13204 56.164 7.15468C56.541 8.24472 56.541 10.0891 56.164 11.1791C55.6529 12.6567 55.0919 13.3658 53.0855 15.0701C52.425 15.6313 51.9461 16.4419 51.824 17.206C51.749 17.675 51.7332 17.6893 51.2885 17.6893H50.8303V14.8065V11.9237L51.3705 11.5821C51.9797 11.197 52.5635 10.3978 52.6767 9.79425C52.9028 8.58893 52.3797 7.36857 51.369 6.74348C50.8562 6.42649 50.6856 6.3853 49.8836 6.3853C49.0817 6.3853 48.911 6.42649 48.3983 6.74348C47.3876 7.36857 46.8644 8.58893 47.0906 9.79425C47.2037 10.3978 47.7876 11.197 48.3967 11.5821L48.9369 11.9237V14.8065V17.6893H48.4788C48.0341 17.6893 48.0182 17.675 47.9433 17.206C47.8212 16.4419 47.3423 15.6313 46.6817 15.0701C44.6478 13.3425 44.1574 12.7299 43.6392 11.2696C43.2222 10.0942 43.2065 8.30177 43.6033 7.15468C44.4112 4.8186 46.3988 3.08004 48.7406 2.66078C49.6 2.50703 51.0877 2.6216 51.9408 2.90734ZM12.0166 11.0608V15.7954H11.0699H10.1232V11.0608V6.32612H11.0699H12.0166V11.0608ZM29.0568 12.0669V17.6893H27.7636H26.4704L26.2403 18.3107C26.1138 18.6524 25.9751 19.0462 25.932 19.1857C25.8068 19.5918 25.45 19.5875 24.5783 19.1697L23.7641 18.7793L21.2772 21.2823L18.7904 23.7852L19.1745 24.6018C19.5879 25.4804 19.5922 25.8037 19.1926 25.9269C19.0532 25.97 18.6595 26.1087 18.3179 26.2352L17.6966 26.4654V27.759V29.0525H12.0579H6.41914L6.49298 27.9294C6.66787 25.2646 7.53763 22.2003 8.90002 19.4493L9.77143 17.6893H15.626H21.4807L21.5116 12.8103L21.5425 7.9314L22.1342 7.70994C23.7951 7.08828 26.7543 6.48331 28.258 6.45798L29.0568 6.44448V12.0669ZM34.6639 6.85368C36.374 7.20002 38.1861 7.77232 39.5962 8.41138C41.254 9.16265 41.3632 9.24468 41.3656 9.74087C41.3667 9.97855 41.4413 10.5207 41.5313 10.9455C41.9758 13.0423 43.1261 14.791 44.9414 16.1286C45.9684 16.8856 46.0251 17.0469 46.0957 19.4154C46.1554 21.4126 46.1605 21.4446 46.5142 22.0164C46.7356 22.3741 47.0934 22.7321 47.451 22.9535C48.0138 23.3019 48.0757 23.3128 49.7189 23.3499C51.2241 23.3839 51.4687 23.3613 51.9658 23.1414C52.2726 23.0056 52.5377 22.9087 52.555 22.9259C52.5723 22.9432 52.7257 23.5068 52.8958 24.1783C53.2701 25.6552 53.5503 27.4482 53.5513 28.3719L53.552 29.0525H47.9311H42.3102V27.759V26.4654L41.689 26.2352C41.3473 26.1087 40.9536 25.97 40.8142 25.9269C40.4082 25.8016 40.4125 25.4448 40.8302 24.5728L41.2205 23.7584L38.7182 21.2708L36.216 18.7833L35.3996 19.1676C34.5212 19.581 34.198 19.5854 34.0748 19.1857C34.0318 19.0462 33.8931 18.6524 33.7666 18.3107L33.5364 17.6893H32.2433H30.9501V12.049V6.40874L32.0729 6.4826C32.6905 6.52308 33.8564 6.69009 34.6639 6.85368ZM50.4844 8.56596C50.6747 8.7563 50.8303 9.02665 50.8303 9.16691C50.8303 9.49644 50.2131 10.1138 49.8836 10.1138C49.5542 10.1138 48.9369 9.49644 48.9369 9.16691C48.9369 8.83738 49.5542 8.21998 49.8836 8.21998C50.0238 8.21998 50.2941 8.37563 50.4844 8.56596ZM4.44319 12.9546V15.7954H3.49651H2.54983V12.9546V10.1138H3.49651H4.44319V12.9546ZM32.3698 20.2342C32.5795 20.863 32.6124 20.8892 33.8641 21.4234L34.5888 21.7328L35.2132 21.4163L35.8377 21.0998L37.3692 22.6317L38.9006 24.1636L38.5842 24.7882L38.2678 25.4128L38.5771 26.1377C39.1112 27.3897 39.1374 27.4227 39.766 27.6325L40.3577 27.8301V29.9994V32.1687L39.766 32.3662C39.1374 32.5761 39.1112 32.6091 38.5771 33.8611L38.2678 34.586L38.5842 35.2106L38.9006 35.8352L37.3692 37.3671L35.8377 38.899L35.2132 38.5825L34.5888 38.266L33.8641 38.5754C32.6125 39.1096 32.5795 39.1359 32.3696 39.7646L32.1721 40.3564H30.0034H27.8347L27.6372 39.7646C27.4274 39.1359 27.3944 39.1096 26.1428 38.5754L25.4181 38.266L24.7936 38.5825L24.1692 38.899L22.6377 37.3671L21.1062 35.8352L21.4226 35.2106L21.7391 34.586L21.4297 33.8611C20.8957 32.6091 20.8694 32.5761 20.2408 32.3662L19.6492 32.1687V29.9994V27.8301L20.2408 27.6325C20.8694 27.4227 20.8957 27.3897 21.4297 26.1377L21.7391 25.4128L21.4226 24.7882L21.1062 24.1636L22.6377 22.6317L24.1692 21.0998L24.7936 21.4163L25.4181 21.7328L26.1428 21.4234C27.3493 20.9085 27.4289 20.8498 27.5975 20.3525C27.6857 20.0921 27.7826 19.8112 27.8129 19.7284C27.8554 19.6124 28.3622 19.5852 30.0202 19.61L32.1724 19.6423L32.3698 20.2342ZM51.777 20.1841C51.777 20.6905 51.7225 20.8395 51.4311 21.131C51.0942 21.468 51.0538 21.477 49.8836 21.477C48.7134 21.477 48.6731 21.468 48.3362 21.131C48.0447 20.8395 47.9903 20.6905 47.9903 20.1841V19.5832H49.8836H51.777V20.1841ZM28.1707 22.615C26.8492 22.9346 25.78 23.5626 24.6741 24.6686C23.1127 26.2306 22.4336 27.8464 22.4336 29.9994C22.4336 32.1524 23.1127 33.7682 24.6741 35.3301C26.2357 36.892 27.851 37.5713 30.0034 37.5713C32.0575 37.5713 33.7437 36.892 35.2507 35.4573C36.7724 34.0085 37.5733 32.1264 37.5733 29.9994C37.5733 27.8464 36.8942 26.2306 35.3327 24.6686C34.2088 23.5445 33.1497 22.9306 31.7784 22.6082C30.8255 22.3843 29.1117 22.3875 28.1707 22.615ZM31.8778 24.6895C32.7806 24.9862 33.9091 25.8111 34.5266 26.6259C35.9125 28.4545 35.996 31.114 34.7297 33.0879C33.0189 35.7547 29.2571 36.4375 26.6897 34.5469C24.1671 32.6894 23.6241 29.1144 25.4903 26.6488C27.0218 24.6256 29.4326 23.886 31.8778 24.6895ZM50.5919 31.3039C50.4519 31.5006 50.2352 31.952 50.1105 32.3071C49.9009 32.9036 49.8836 33.3273 49.8836 37.8824V42.8121L49.3316 43.5965C46.0841 48.2108 41.2702 51.5241 35.8187 52.897C34.4716 53.2364 32.4094 53.5543 31.5562 53.5543H30.9501V47.9319V42.3095H32.2433H33.5364L33.7666 41.6881C33.8931 41.3463 34.0318 40.9525 34.0748 40.8131C34.2 40.407 34.5568 40.4113 35.4286 40.8291L36.2427 41.2195L38.7297 38.7165L41.2164 36.2136L40.8323 35.397C40.419 34.5184 40.4146 34.1951 40.8142 34.0719C40.9536 34.0288 41.3473 33.8901 41.689 33.7636L42.3102 33.5333V32.2398V30.9463H46.5783H50.8464L50.5919 31.3039ZM55.9063 31.2969C56.8449 31.78 57.3297 32.5981 57.4251 33.8601L57.4912 34.734H54.617H51.7428L51.8089 33.8601C51.9234 32.3459 52.6568 31.3909 53.9662 31.0514C54.4697 30.9208 55.4056 31.0392 55.9063 31.2969ZM53.6703 44.2034V51.7788H52.7236H51.777V44.2034V36.6279H52.7236H53.6703V44.2034ZM57.457 44.2034V51.7788H56.5104H55.5637V44.2034V36.6279H56.5104H57.457V44.2034ZM10.0096 38.7944C10.804 39.2146 11.0699 39.8187 11.0699 41.2036V42.3095H13.0907H15.1115L15.4574 42.6555L15.8033 43.0015V44.5493V46.0972H15.4528C14.7686 46.0972 13.7678 46.579 13.1331 47.214C11.6338 48.7136 11.6338 51.0563 13.1331 52.5559C13.7678 53.1909 14.7686 53.6727 15.4528 53.6727H15.8033V55.2205V56.7684L15.4574 57.1144L15.1115 57.4604H9.17656H3.24162L2.89573 57.1144L2.54983 56.7684V55.2205V53.6727H2.90034C3.58455 53.6727 4.58531 53.1909 5.22005 52.5559C6.71935 51.0563 6.71935 48.7136 5.22005 47.214C4.58531 46.579 3.58455 46.0972 2.90034 46.0972H2.54983V44.5493V43.0015L2.89573 42.6555L3.24162 42.3095H5.26242H7.28321V41.2101C7.28321 39.7994 7.55089 39.1879 8.34373 38.7881C9.01113 38.4515 9.36389 38.4528 10.0096 38.7944ZM46.6487 40.7911C46.3453 41.2579 46.0969 41.6777 46.0969 41.7237C46.0969 41.7972 47.1076 42.6009 47.4735 42.8185C47.602 42.8949 48.8186 41.1933 48.8186 40.937C48.8186 40.842 47.396 39.9422 47.2457 39.9422C47.2209 39.9422 46.9522 40.3241 46.6487 40.7911ZM44.1946 43.9186C43.6446 44.5071 42.0072 45.8381 41.0085 46.5083C38.9576 47.8848 36.2128 49.016 33.808 49.4759L32.7018 49.6875L32.7843 50.4578C32.892 51.4642 32.9294 51.5425 33.2999 51.5395C34.3185 51.5312 37.4296 50.588 39.2451 49.7372C41.3625 48.7451 43.9282 46.9504 45.4248 45.4147L45.9952 44.8294L45.3064 44.2222C44.9277 43.8881 44.5871 43.6141 44.5496 43.6132C44.5122 43.6122 44.3524 43.7497 44.1946 43.9186ZM55.9513 55.4778L55.0312 57.2828H54.617H54.2028L53.2827 55.4778L52.3626 53.6727H54.617H56.8714L55.9513 55.4778Z" fill="#172A6C"/>
</svg>
