<svg width="47" height="64" viewBox="0 0 47 64" fill="none" xmlns="http://www.w3.org/2000/svg">
<path fill-rule="evenodd" clip-rule="evenodd" d="M11.6246 0.742849C11.2188 0.840671 10.4701 1.12443 9.96093 1.3734C8.67605 2.00175 7.11882 3.55337 6.47625 4.84569C5.57218 6.66386 5.60792 6.23534 5.53065 16.217L5.46127 25.1919L4.74304 26.5886C3.22832 29.5336 3.17385 31.4683 4.52626 34.2914L5.13974 35.5721L4.2645 36.0116C2.73894 36.7777 1.61144 38.0509 1.09593 39.5892C0.875953 40.2458 0.839844 40.6539 0.839844 42.4865C0.839844 44.5572 0.848224 44.6274 1.12502 44.8868C1.47698 45.2164 1.95157 45.2292 2.33583 44.9194C2.61607 44.6935 2.62926 44.606 2.6942 42.5537C2.75237 40.7174 2.79896 40.3406 3.03064 39.8288C3.34995 39.1239 3.7925 38.5761 4.4008 38.1322C4.73897 37.8856 7.65404 36.5002 8.94274 35.9738C9.06536 35.9236 9.09679 38.5306 9.09679 48.7682V61.6255L5.92341 61.5927L2.75003 61.5599L2.68841 54.452L2.62679 47.3441L2.33583 47.1093C1.95897 46.805 1.56941 46.8116 1.16458 47.1292L0.839844 47.3838V54.7302V62.0766L1.11713 62.4828C1.26957 62.7062 1.55093 63.0047 1.74231 63.1462C2.088 63.4017 2.15726 63.4035 12.5256 63.4378C18.2651 63.4567 23.0848 63.4421 23.2361 63.4053C23.3873 63.3684 23.5997 63.1675 23.708 62.9588C23.8708 62.6447 23.8789 62.5171 23.755 62.2185C23.6725 62.0201 23.5054 61.8046 23.3836 61.7396C23.2618 61.6746 22.5234 61.6214 21.7428 61.6214H20.3235L20.2867 58.538C20.2499 55.4662 20.2487 55.4538 19.9589 55.22C19.5283 54.8726 18.9074 54.9131 18.5951 55.3091C18.3526 55.6165 18.3396 55.7839 18.3396 58.6271V61.6214H14.7041H11.0686V48.2997V34.9781L11.4541 34.844C11.8332 34.7123 11.8638 34.7326 13.2866 36.0598C14.0831 36.8028 14.9762 37.5192 15.2733 37.6537C16.0522 38.0061 16.8084 37.9742 17.6444 37.5538L18.3396 37.204V44.6255V52.047L18.6422 52.3486C19.1279 52.8331 19.8251 52.74 20.1311 52.1499C20.2835 51.8562 20.3114 50.6664 20.3114 44.4824V37.1626L20.7961 37.4825C21.126 37.7001 21.513 37.8233 22.0073 37.868C23.0025 37.958 23.663 37.6463 24.8514 36.5259C26.9675 34.5311 26.7426 34.6918 27.186 34.8586L27.5825 35.0078V37.1176V39.2273L26.9971 39.3115C26.2322 39.4215 25.5534 39.8735 25.2434 40.4793C24.9995 40.9561 24.9945 41.1745 24.9945 51.3471C24.9945 58.3831 25.0368 61.8397 25.1256 62.0742C25.2862 62.4981 25.8048 63.0586 26.2515 63.2913C26.5277 63.4352 27.901 63.4647 34.3236 63.4645C42.9968 63.4644 42.5254 63.5118 43.2866 62.5627C43.6425 62.119 43.6676 62.0181 43.7074 60.873L43.7497 59.6551H44.0999C44.5963 59.6551 45.0879 59.4464 45.4938 59.0635C46.1693 58.4262 46.1914 58.3044 46.1914 55.2173C46.1914 52.4273 46.1849 52.3537 45.8954 51.861C45.5458 51.2661 44.7968 50.807 44.176 50.807H43.7345L43.6998 45.79L43.665 40.773L43.3371 40.2791C42.685 39.297 42.8677 39.3212 35.8086 39.2816L29.5543 39.2466V37.5903V35.9338L29.9548 36.1038C30.1752 36.1973 31.1098 36.6128 32.032 37.0272C32.9542 37.4414 33.8302 37.7805 33.9786 37.7805C34.127 37.7805 34.3846 37.6447 34.551 37.4788C35.0972 36.9342 34.8677 36.2603 33.9827 35.8101C33.716 35.6744 33.4979 35.5359 33.4979 35.5021C33.4979 35.4683 33.743 34.954 34.0426 34.3592C34.7982 32.859 35.0208 32.0345 35.0267 30.7143C35.0332 29.2402 34.8455 28.5353 33.9794 26.7817C33.5789 25.9707 33.1957 25.0092 33.1281 24.6452C33.0539 24.2461 33.0049 20.6805 33.0049 15.6692C33.0049 6.37237 33.0319 6.70319 32.1219 4.84987C31.1556 2.88226 29.1483 1.29561 26.9096 0.730069C25.8512 0.462658 12.7414 0.473718 11.6246 0.742849ZM27.0179 2.73037C28.838 3.41155 30.1495 4.72391 30.8081 6.52303C31.0416 7.16096 31.0775 7.57117 31.1267 10.1607L31.182 13.0794H27.663C23.9303 13.0794 23.2434 13.0068 22.248 12.5068C21.4638 12.113 20.8719 11.565 19.4808 9.94567C18.2228 8.48118 17.8414 8.16535 17.3287 8.16436C16.6415 8.16301 16.3523 8.43853 15.1352 10.2533C13.8389 12.1862 13.3062 12.7484 12.5816 12.9491C12.3256 13.02 11.0764 13.0783 9.8054 13.0787L7.49469 13.0794V10.5154C7.49469 7.56466 7.58108 6.95192 8.16449 5.76737C8.96492 4.14214 10.7073 2.81811 12.4325 2.52391C12.8007 2.46111 16.069 2.42044 19.6952 2.43358C26.1773 2.45693 26.3008 2.46197 27.0179 2.73037ZM18.3389 11.5424C20.7403 14.363 21.934 14.9228 25.5474 14.9228H27.6053L27.5524 18.3944C27.4946 22.1973 27.4475 22.4962 26.6773 23.9533C26.215 24.8278 25.0464 26.0504 24.2082 26.5365C22.8073 27.349 22.1702 27.494 19.7569 27.5501C17.1957 27.6095 16.288 27.4726 14.939 26.8235C13.7896 26.2705 12.3882 24.8821 11.8313 23.7447C11.1763 22.4069 11.0732 21.6421 11.0707 18.1026L11.0686 14.9536L12.0853 14.8935C13.9339 14.7844 14.858 14.1274 16.3698 11.8475C16.8616 11.1056 17.306 10.4987 17.3572 10.4987C17.4084 10.4987 17.8501 10.9684 18.3389 11.5424ZM9.12895 18.3944C9.18404 21.3994 9.22742 21.9959 9.4511 22.8314C9.79789 24.1271 10.6004 25.5925 11.4999 26.5731C12.2158 27.3536 13.5743 28.3471 14.3807 28.6803L14.774 28.8426L14.739 30.075L14.7041 31.3072L10.8221 33.0548L6.94012 34.8026L6.26737 33.4504C5.62493 32.1595 5.59239 32.0471 5.54482 30.9632C5.48345 29.5649 5.66831 28.8655 6.51791 27.2798C7.45131 25.5378 7.49001 25.2359 7.4926 19.6848L7.49469 14.9228H8.27996H9.06511L9.12895 18.3944ZM31.1564 19.8126C31.1564 25.4213 31.1624 25.4672 32.1599 27.3962C32.5094 28.0721 32.8696 28.9016 32.9603 29.2396C33.1553 29.9659 33.1716 31.1091 32.9978 31.8817C32.843 32.5705 31.783 34.7098 31.5998 34.7036C31.5254 34.701 29.773 33.9387 27.7057 33.0096L23.947 31.3204L23.9133 30.0956L23.8797 28.8709L24.6628 28.4688C26.898 27.3212 28.5404 25.2381 29.1817 22.7374C29.4027 21.8759 29.431 21.376 29.431 18.344V14.9228H30.2937H31.1564V19.8126ZM14.5475 16.3568C14.2817 16.4634 14.0153 17.1097 14.0994 17.4439C14.212 17.8912 14.6111 18.1179 15.2862 18.1179C16.0087 18.1179 16.3678 17.8191 16.3678 17.2176C16.3678 16.6233 15.9472 16.2719 15.2508 16.2843C14.9501 16.2896 14.6336 16.3222 14.5475 16.3568ZM22.6812 16.3568C22.4154 16.4634 22.149 17.1097 22.2331 17.4439C22.3457 17.8912 22.7448 18.1179 23.4199 18.1179C24.1424 18.1179 24.5015 17.8191 24.5015 17.2176C24.5015 16.6233 24.0809 16.2719 23.3845 16.2843C23.0838 16.2896 22.7673 16.3222 22.6812 16.3568ZM20.6729 22.4899C19.7925 22.8687 18.6753 22.8857 17.8533 22.5332C17.0885 22.205 16.529 22.2568 16.21 22.6849C15.4778 23.6672 16.9557 24.6767 19.1407 24.6873C21.3086 24.6976 22.7386 23.7429 22.1626 22.6697C21.9297 22.2356 21.4097 22.1728 20.6729 22.4899ZM21.907 30.4992L21.9006 31.5745L20.6676 32.6191C19.9894 33.1936 19.3821 33.6636 19.318 33.6636C19.2539 33.6636 18.6194 33.167 17.9079 32.5602L16.6143 31.4568V30.4403V29.4239H19.2639H21.9135L21.907 30.4992ZM24.7798 33.8321C24.8312 33.8825 24.3716 34.3767 23.7586 34.9304C22.4139 36.1449 22.1269 36.2088 21.3049 35.4763L20.7876 35.0154L21.936 34.0205L23.0843 33.0256L23.8853 33.3831C24.3259 33.5796 24.7284 33.7817 24.7798 33.8321ZM16.743 34.063L17.8522 35.0154L17.3258 35.4759C16.4881 36.2085 16.1971 36.1449 14.8743 34.9407C14.2724 34.3926 13.7804 33.9088 13.7813 33.8654C13.783 33.7715 15.2515 33.1218 15.4769 33.1152C15.5632 33.1127 16.1328 33.5393 16.743 34.063ZM41.7548 46.0142V50.807L41.2311 50.8082C40.1296 50.8106 38.6754 51.8784 38.2896 52.9679C38.1734 53.2965 38.1198 54.0339 38.1209 55.2925C38.1228 57.3686 38.205 57.6752 38.9925 58.5444C39.5802 59.1933 40.2465 59.5343 41.0976 59.6218L41.7646 59.6905L41.7288 60.6252L41.6932 61.5599L34.436 61.5916C29.1784 61.6146 27.1325 61.5851 27.0109 61.4845C26.8718 61.3693 26.8431 59.6378 26.8431 51.3654C26.8431 45.8763 26.88 41.3484 26.9252 41.3034C26.9704 41.2583 30.3255 41.2214 34.3811 41.2214H41.7548V46.0142ZM30.1939 43.5596C29.525 43.9662 29.4081 44.4325 29.4532 46.5139C29.4881 48.1228 29.522 48.372 29.7479 48.6786C30.2946 49.4206 30.4974 49.4548 34.3606 49.4548C38.2242 49.4548 38.427 49.4206 38.9732 48.6781C39.2065 48.3609 39.2285 48.1602 39.2285 46.3432C39.2285 44.5935 39.2004 44.3139 38.9946 44.011C38.5318 43.3303 38.4009 43.3106 34.3359 43.3111C30.808 43.3115 30.5793 43.3252 30.1939 43.5596ZM37.3183 46.3214V47.4889H34.3606H31.4029V46.3214V45.154H34.3606H37.3183V46.3214ZM44.1479 52.7249C44.3163 52.7893 44.3428 53.1207 44.3428 55.1582C44.3428 56.8289 44.2997 57.5598 44.195 57.6643C44.0101 57.8486 41.7617 57.8635 41.1157 57.6846C40.8659 57.6154 40.5194 57.3902 40.3455 57.1843C40.0432 56.8259 40.0295 56.7433 40.0295 55.2713C40.0295 52.9131 40.2778 52.6578 42.5766 52.6531C43.3336 52.6516 44.0407 52.6839 44.1479 52.7249Z" fill="#172A6C"/>
</svg>
