<svg width="64" height="64" viewBox="0 0 64 64" fill="none" xmlns="http://www.w3.org/2000/svg">
<path fill-rule="evenodd" clip-rule="evenodd" d="M40.021 0.215672C39.7954 0.326914 39.4861 0.59277 39.3336 0.806504C39.0758 1.16785 39.0536 1.35471 39.0175 3.46131L38.9787 5.72739L39.3156 5.99237C39.7597 6.34172 40.185 6.32747 40.5619 5.9505C40.8607 5.65177 40.8687 5.59428 40.8687 3.74554V1.84743L42.5249 1.93505C45.5988 2.09753 47.91 2.525 49.6121 3.24582L50.4306 3.59255L50.4628 10.987C50.4806 15.054 50.4686 18.3815 50.4362 18.3815C50.4038 18.3815 50.1081 18.2757 49.779 18.1466C48.1892 17.5224 45.506 17.0644 42.6357 16.9274L40.8687 16.8431V13.0501C40.8687 9.42375 40.8577 9.24613 40.6187 9.00715C40.464 8.85241 40.2021 8.75717 39.9313 8.75717C39.6604 8.75717 39.3986 8.85241 39.2438 9.00715C39.004 9.24701 38.9939 9.42375 38.9939 13.3633C38.9939 17.4159 38.9975 17.4749 39.2751 17.8827C39.8634 18.7472 40.0152 18.7954 42.462 18.8953C45.6395 19.025 47.3737 19.3281 49.4932 20.1243C51.1682 20.7535 51.7974 20.7215 54.1742 19.8866C55.7274 19.3409 57.794 19.0122 60.3763 18.8999C62.8691 18.7917 63.2099 18.6771 63.7157 17.7769L63.9922 17.285V9.38212C63.9922 1.5642 63.9893 1.4742 63.7275 1.00824C63.2701 0.194424 62.7616 0.0078125 61.0016 0.0078125C57.657 0.0078125 54.1422 0.680263 52.0867 1.71344L51.493 2.01192L50.8993 1.71306C48.8532 0.683388 45.2912 0.00443775 41.9673 0.0106873C40.8092 0.0128121 40.3303 0.0633084 40.021 0.215672ZM62.1173 9.36288V16.8431L60.3503 16.9274C57.48 17.0644 54.7968 17.5224 53.207 18.1466C52.8779 18.2757 52.5822 18.3815 52.5498 18.3815C52.5175 18.3815 52.5055 15.049 52.5232 10.9758L52.5555 3.57005L53.591 3.15671C55.3781 2.44351 58.3368 1.95554 61.2111 1.90017L62.1173 1.88267V9.36288ZM42.2528 4.71184C41.9162 5.13969 41.924 5.57428 42.2749 5.92475C42.5172 6.16686 42.7811 6.22698 44.181 6.3591C45.0747 6.44347 46.3347 6.62383 46.9811 6.75994C48.5021 7.08017 48.6733 7.07317 48.9841 6.67795C49.5865 5.91213 49.1482 5.24455 47.8488 4.94908C46.4822 4.63822 44.5357 4.38737 43.4714 4.38474C42.5822 4.38262 42.4927 4.40674 42.2528 4.71184ZM57.8676 4.46861C57.002 4.55973 54.6864 5.02769 54.2982 5.18981C53.7805 5.40617 53.5818 5.9335 53.8119 6.48046C54.0437 7.03205 54.417 7.08442 55.887 6.77144C56.5764 6.62458 57.8423 6.43997 58.6999 6.36097C60.5124 6.19423 60.8674 6.02225 60.8674 5.3108C60.8674 4.57223 60.5419 4.37912 59.3363 4.40249C58.769 4.41349 58.1082 4.44324 57.8676 4.46861ZM17.8259 6.33035C15.8026 6.82006 13.8627 8.38895 12.8195 10.3789C12.0629 11.8221 11.9574 12.4614 11.9132 15.8704C11.8759 18.7389 11.8568 18.9558 11.5921 19.4951C11.3578 19.9723 11.3029 20.3244 11.2656 21.5875C11.2106 23.4498 11.4077 24.269 12.0944 25.0307C12.5479 25.5338 13.5914 26.1273 14.0268 26.1296C14.1705 26.1305 14.2455 26.2281 14.2455 26.4146C14.2455 26.9676 14.7667 28.5795 15.2047 29.3807C15.7881 30.4483 16.6328 31.4809 17.4674 32.1468L18.1422 32.6853L18.0565 33.3765C17.9516 34.2228 17.7629 34.6935 17.3157 35.224L16.9731 35.6302H12.2568C6.81725 35.6302 6.719 35.6453 5.72857 36.6356C4.90438 37.4599 4.74614 38.0639 4.74614 40.386V42.2216L4.17017 43.0805C3.36248 44.2851 2.80189 45.4425 2.30017 46.9417C1.62172 48.9695 1.49798 50.1445 1.4971 54.5663L1.49635 58.441L1.04413 58.8019C0.789274 59.0052 0.455796 59.4599 0.279933 59.844C-0.3449 61.2089 0.134693 62.7631 1.42736 63.5624L2.03919 63.9406L23.235 63.9747C46.5345 64.0124 44.96 64.0609 45.8911 63.2773C46.4304 62.8236 46.8658 61.8355 46.8658 61.0658C46.8658 60.2666 46.4205 59.293 45.8326 58.8071L45.3896 58.441L45.3363 53.9414C45.2846 49.5759 45.2732 49.4044 44.9556 48.1918C44.4206 46.1493 43.6899 44.5019 42.6661 43.0299L42.1186 42.2427V40.3966C42.1186 38.0629 41.9614 37.4609 41.1362 36.6356C40.1458 35.6453 40.0475 35.6302 34.608 35.6302H29.8917L29.5491 35.224C29.0964 34.6871 28.8695 34.1217 28.8695 33.5306C28.8695 33.0975 28.9306 33.004 29.4632 32.6232C30.8823 31.6084 31.9394 30.343 32.6059 28.8614C32.9461 28.1051 33.3692 26.6479 33.3692 26.2323C33.3692 26.1205 33.5161 26.0059 33.713 25.9639C34.2674 25.8457 34.8339 25.4288 35.2079 24.8639L35.5566 24.337L35.59 18.274C35.6285 11.2895 35.6281 11.2857 34.6736 10.3313C34.1364 9.7941 33.242 9.38212 32.6129 9.38212C32.4547 9.38212 32.3649 9.19464 32.2547 8.63418C32.0652 7.671 31.5167 6.94255 30.6342 6.48146L29.966 6.13236L24.2618 6.14274C19.7954 6.15099 18.399 6.19161 17.8259 6.33035ZM30.0678 8.42045C30.2477 8.62943 30.3694 8.92903 30.3694 9.16214C30.3694 9.7471 30.8376 10.6014 31.3484 10.9485C31.5972 11.1175 32.0806 11.293 32.4225 11.3384C32.8258 11.3919 33.1462 11.5226 33.3339 11.7102L33.6232 11.9996L33.59 15.4057L33.5567 18.8117L33.2639 18.9577C32.8218 19.1779 32.3508 18.9868 31.9318 18.4172C31.7256 18.1369 31.3387 17.7815 31.0721 17.6275C30.6292 17.3717 30.5053 17.3569 29.6347 17.4564C26.3159 17.8359 24.3476 17.1761 21.9314 14.8742C20.6366 13.6407 20.119 13.3588 19.1202 13.3427C18.2236 13.3283 17.5778 13.5579 16.9699 14.107C16.0611 14.9281 15.9423 15.3067 15.8924 17.5378C15.8683 18.6204 15.8059 19.5064 15.754 19.5064C15.5558 19.5064 14.2024 19.0012 14.0404 18.8668C13.8248 18.6879 13.7989 13.7388 14.0083 12.7318C14.3094 11.2831 15.3623 9.73885 16.5676 8.9779C17.0703 8.66068 18.3122 8.18121 18.8702 8.08897C19.0421 8.0606 21.564 8.04472 24.4744 8.0536L29.7663 8.06972L30.0678 8.42045ZM42.5561 8.15159C41.9065 8.50681 41.8184 9.10115 42.3383 9.62098C42.6555 9.93821 42.7861 9.97233 43.9853 10.0508C44.7016 10.0978 46.0103 10.2814 46.8936 10.459C48.3906 10.7599 48.5202 10.7681 48.8068 10.5803C49.3973 10.1933 49.3703 9.26888 48.7592 8.95291C48.2506 8.68993 46.1699 8.29333 44.4935 8.13972C42.7726 7.9821 42.867 7.9816 42.5561 8.15159ZM58.8675 8.09109C56.2825 8.35045 54.2518 8.77692 53.935 9.12702C53.5978 9.49962 53.6483 10.1261 54.0427 10.4654C54.4527 10.818 54.4609 10.8183 55.7641 10.5139C56.3367 10.3802 57.3958 10.2103 58.1176 10.1366C58.8394 10.0628 59.6452 9.98008 59.9085 9.95283C60.562 9.88509 60.8674 9.58074 60.8674 8.9969C60.8674 8.6363 60.7899 8.46432 60.538 8.26633C60.2151 8.01223 59.9407 7.98348 58.8675 8.09109ZM42.3005 12.4388C41.9182 12.821 41.909 13.2703 42.2749 13.6919C42.5344 13.9909 42.6745 14.026 44.0885 14.1455C44.9313 14.2168 46.2321 14.4013 46.9793 14.5556C48.3921 14.8472 48.7587 14.8217 49.0716 14.4096C49.3039 14.1038 49.2809 13.5811 49.0209 13.2601C48.7466 12.9214 47.4079 12.5819 45.3097 12.3193C43.1405 12.0477 42.673 12.0662 42.3005 12.4388ZM55.588 12.636C54.0321 12.9714 53.696 13.1973 53.7159 13.8948C53.728 14.3236 53.9256 14.6135 54.3002 14.7524C54.5333 14.8387 56.9734 14.415 57.5274 14.1919C58.0822 13.9684 58.1641 13.0349 57.6632 12.641C57.2679 12.33 57.0102 12.3294 55.588 12.636ZM20.5952 16.2879C23.0054 18.5698 25.128 19.5095 27.8583 19.5034C28.5863 19.5018 29.407 19.448 29.682 19.3839C30.0201 19.3051 30.1967 19.31 30.2277 19.399C30.2528 19.4714 30.4492 19.731 30.6642 19.9757C31.1957 20.5812 32.1389 21.0035 32.963 21.005L33.6192 21.0063V22.4187C33.6192 23.3506 33.5682 23.8821 33.4692 23.9811C33.3867 24.0635 33.0468 24.131 32.7136 24.131C31.8171 24.131 31.5576 24.4416 31.4566 25.6359C31.3047 27.4296 30.5967 28.9383 29.3117 30.206C26.1851 33.2907 21.1995 33.248 18.1097 30.1099C16.9437 28.9256 16.3221 27.489 16.0571 25.3666C15.949 24.5 15.788 24.3562 14.795 24.239C14.0599 24.1523 13.8824 24.0814 13.5893 23.7572C13.2603 23.3935 13.2456 23.3209 13.2456 22.0667C13.2456 21.346 13.2782 20.7563 13.3181 20.7563C13.3579 20.7563 13.8687 20.925 14.453 21.1313C15.0373 21.3375 15.7133 21.5062 15.9553 21.5062C16.589 21.5062 17.1987 21.1733 17.5245 20.6493C17.785 20.2305 17.8111 20.0208 17.8493 18.0402L17.8909 15.8865L18.2651 15.5717C18.5076 15.3676 18.7919 15.2567 19.0728 15.2567C19.4443 15.2567 19.6616 15.4039 20.5952 16.2879ZM21.2935 34.1353C22.9574 34.5965 24.3962 34.575 26.6509 34.0554C26.9509 33.9862 26.995 34.0138 26.9974 34.2719C26.9989 34.4347 27.1086 34.8069 27.2413 35.099L27.4824 35.6302H23.423H19.3638L19.5479 35.2741C19.6491 35.0782 19.7986 34.6533 19.8801 34.3297C19.9962 33.8688 20.0721 33.7582 20.2305 33.819C20.3416 33.8617 20.8199 34.0041 21.2935 34.1353ZM39.0564 37.6265C39.3327 37.6903 39.6821 37.8878 39.8375 38.0679L40.1188 38.394V48.2613V58.1285H23.4324H6.746V56.3724C6.746 54.1515 6.58226 53.7539 5.6677 53.7539C5.49834 53.7539 5.22173 53.892 5.05299 54.0607C4.75426 54.3593 4.74614 54.4176 4.74614 56.2546V58.1417L4.08993 58.1038L3.43372 58.0661L3.39623 55.3163C3.3376 51.0046 3.58659 48.8769 4.39078 46.8169L4.68364 46.0669L4.74614 48.3978C4.80151 50.4619 4.83588 50.7587 5.04674 50.9913C5.34872 51.3245 5.99205 51.336 6.3884 51.0152L6.68351 50.7763L6.746 44.519C6.80775 38.3428 6.812 38.2583 7.07461 37.9956C7.2211 37.8494 7.53045 37.6849 7.76206 37.6302C8.36302 37.4882 38.4424 37.4847 39.0564 37.6265ZM21.9881 43.9288C21.095 44.2719 20.5448 44.6224 19.972 45.2131C17.6215 47.6364 18.2972 51.4658 21.3404 52.9699C22.232 53.4105 22.3686 53.4414 23.4259 53.4408C24.4356 53.4403 24.6472 53.3976 25.3923 53.0452C26.9677 52.3001 27.9567 51.0081 28.2557 49.3049C28.6073 47.3021 27.503 45.2142 25.5674 44.2223C24.9003 43.8803 24.6621 43.8282 23.6199 43.7955C22.8333 43.7709 22.2825 43.8158 21.9881 43.9288ZM24.2931 45.8064C25.1165 46.0542 25.665 46.5144 26.0443 47.2753C27.0259 49.2452 25.6407 51.504 23.4514 51.504C22.1986 51.504 21.2388 50.8741 20.7459 49.7284C20.0636 48.1424 20.8998 46.3217 22.5474 45.8058C23.2239 45.5941 23.588 45.5942 24.2931 45.8064ZM42.924 48.1791C43.3588 49.6797 43.5111 51.6267 43.4676 55.1288L43.4311 58.0661L42.7749 58.1038L42.1186 58.1417L42.1291 52.1042C42.1396 46.1242 42.1419 46.0717 42.3714 46.5695C42.4989 46.846 42.7475 47.5703 42.924 48.1791ZM44.574 60.2996C45.0195 60.6829 45.0503 61.3771 44.64 61.7873L44.3615 62.0658H23.4324H2.50328L2.2378 61.8004C1.83108 61.3937 1.85645 60.6734 2.29055 60.2999L2.63528 60.0034H23.4324H44.2295L44.574 60.2996Z" fill="#172A6C"/>
</svg>
